<svg width="48" height="48" viewBox="0 0 48 48" fill="none" xmlns="http://www.w3.org/2000/svg">
<path d="M45 42H3V45H45V42Z" fill="#FEA82A"/>
<path d="M40.5 16.4998C40.8978 16.4998 41.2794 16.3418 41.5607 16.0604C41.842 15.7791 42 15.3976 42 14.9998V10.4998C41.9999 10.1915 41.9048 9.89077 41.7276 9.63848C41.5505 9.38619 41.2999 9.1946 41.01 9.08979L24.51 3.08979C24.1804 2.97064 23.8196 2.97064 23.49 3.08979L6.99 9.08979C6.70009 9.1946 6.44952 9.38619 6.27238 9.63848C6.09524 9.89077 6.00013 10.1915 6 10.4998V14.9998C6 15.3976 6.15804 15.7791 6.43934 16.0604C6.72064 16.3418 7.10218 16.4998 7.5 16.4998H9V35.9998H6V38.9998H42V35.9998H39V16.4998H40.5ZM9 11.5498L24 6.08979L39 11.5498V13.4998H9V11.5498ZM27 35.9998H21V16.4998H27V35.9998ZM12 16.4998H18V35.9998H12V16.4998ZM36 35.9998H30V16.4998H36V35.9998Z" fill="#1393EA"/>
</svg>
