<svg width="48" height="48" viewBox="0 0 48 48" fill="none" xmlns="http://www.w3.org/2000/svg">
<path d="M6 30V33H12.879L3 42.879L5.121 45L15 35.121V42H18V30H6Z" fill="#FEA82A"/>
<path d="M22.5 42V39C25.8196 38.9958 29.0216 37.7705 31.496 35.5575C33.9703 33.3445 35.544 30.2985 35.9172 27H24C23.2046 26.9992 22.442 26.6828 21.8796 26.1204C21.3172 25.558 21.0008 24.7954 21 24V12.0828C17.7015 12.456 14.6555 14.0297 12.4425 16.504C10.2295 18.9784 9.00418 22.1804 9 25.5H6C6.00496 21.1255 7.74494 16.9315 10.8382 13.8382C13.9315 10.7449 18.1255 9.00496 22.5 9C22.8978 9 23.2794 9.15804 23.5607 9.43934C23.842 9.72064 24 10.1022 24 10.5V24H37.5C37.8978 24 38.2794 24.158 38.5607 24.4393C38.842 24.7206 39 25.1022 39 25.5C38.995 29.8745 37.2551 34.0685 34.1618 37.1618C31.0685 40.2551 26.8745 41.995 22.5 42Z" fill="#1393EA"/>
<path d="M43.5086 21H29.9925C29.5989 20.9999 29.2092 20.9222 28.8458 20.7713C28.4823 20.6203 28.1521 20.3992 27.8741 20.1206C27.5962 19.842 27.3759 19.5112 27.2259 19.1474C27.0759 18.7835 26.9992 18.3936 27 18V4.50004C27.0016 4.30099 27.0425 4.10421 27.1204 3.921C27.1982 3.73779 27.3114 3.57175 27.4536 3.43239C27.5957 3.29303 27.764 3.18311 27.9487 3.10892C28.1334 3.03472 28.331 2.99772 28.53 3.00004C32.8942 3.0129 37.0759 4.75226 40.1618 7.8382C43.2478 10.9241 44.9871 15.1059 45 19.47C45.0033 19.6686 44.9672 19.8659 44.8939 20.0505C44.8206 20.2351 44.7115 20.4033 44.5728 20.5456C44.4342 20.6878 44.2688 20.8012 44.0861 20.8792C43.9035 20.9572 43.7072 20.9982 43.5086 21ZM30 18H41.9172C41.5724 14.9582 40.206 12.1234 38.0413 9.95872C35.8767 7.79407 33.0418 6.42767 30 6.08284V18Z" fill="#1393EA"/>
</svg>
