<svg width="48" height="48" viewBox="0 0 48 48" fill="none" xmlns="http://www.w3.org/2000/svg">
<path d="M31.5 36H16.5C15.7044 36 14.9413 36.3161 14.3787 36.8787C13.8161 37.4413 13.5 38.2044 13.5 39V42C13.5 42.7956 13.8161 43.5587 14.3787 44.1213C14.9413 44.6839 15.7044 45 16.5 45H31.5C32.2956 45 33.0587 44.6839 33.6213 44.1213C34.1839 43.5587 34.5 42.7956 34.5 42V39C34.5 38.2044 34.1839 37.4413 33.6213 36.8787C33.0587 36.3161 32.2956 36 31.5 36ZM31.5 42H16.5V39H31.5V42Z" fill="#FEA82A"/>
<path d="M43.0604 21.4395L25.0604 3.43949C24.9212 3.30014 24.7559 3.1896 24.5739 3.11418C24.392 3.03876 24.1969 2.99994 23.9999 2.99994C23.8029 2.99994 23.6079 3.03876 23.4259 3.11418C23.244 3.1896 23.0786 3.30014 22.9394 3.43949L4.93942 21.4395C4.72971 21.6493 4.5869 21.9165 4.52905 22.2074C4.4712 22.4984 4.5009 22.7999 4.61441 23.074C4.72791 23.348 4.92012 23.5823 5.16674 23.7471C5.41335 23.9119 5.7033 23.9999 5.99992 24H13.4999V30C13.5008 30.7954 13.8172 31.5579 14.3796 32.1203C14.942 32.6827 15.7046 32.9991 16.4999 33H31.4999C32.2952 32.9989 33.0577 32.6825 33.6201 32.1201C34.1824 31.5578 34.4989 30.7953 34.4999 30V24H41.9999C42.2966 23.9999 42.5865 23.9119 42.8331 23.7471C43.0797 23.5823 43.2719 23.348 43.3854 23.074C43.4989 22.7999 43.5286 22.4984 43.4708 22.2074C43.4129 21.9165 43.2701 21.6493 43.0604 21.4395ZM31.4999 21V30H16.4999V21H9.62107L23.9999 6.62114L38.3788 21H31.4999Z" fill="#1393EA"/>
</svg>
