<svg width="49" height="55" viewBox="0 0 49 55" fill="none" xmlns="http://www.w3.org/2000/svg">
<rect width="49" height="55" rx="4" fill="#F4F5F6"/>
<g clip-path="url(#clip0)">
<path d="M25.0339 18.4796L23.2564 18.2831L24.3711 16.8895C24.6693 16.5163 24.6386 15.9796 24.299 15.6432L22.1794 13.5414C21.8398 13.2051 21.3009 13.1764 20.9276 13.4753L19.5586 14.5718L19.3649 12.8326C19.3117 12.3582 18.9094 12 18.4307 12H15.4402C14.9609 12 14.5587 12.3582 14.5061 12.8325L14.3087 14.6036L12.9096 13.4934C12.5349 13.1963 11.9961 13.2269 11.6578 13.5651L9.54819 15.6758C9.2105 16.014 9.18163 16.5513 9.48175 16.9233L10.5826 18.2868L8.83637 18.4796C8.36025 18.5321 8 18.9327 8 19.4101V22.3888C8 22.8655 8.36025 23.2668 8.83644 23.3193L10.6146 23.5158L9.49994 24.9093C9.20106 25.2819 9.23238 25.8192 9.572 26.1556L11.691 28.2574C12.0306 28.5938 12.5694 28.6224 12.9428 28.3235L14.3124 27.227L14.5061 28.9662C14.5587 29.4399 14.9609 29.7987 15.4402 29.7987H18.4307C18.9094 29.7987 19.3117 29.4399 19.3649 28.9662L19.5617 27.1952L20.9607 28.3054C21.3354 28.6024 21.8749 28.5719 22.2126 28.2336L24.3221 26.1224C24.6604 25.7848 24.6893 25.2475 24.3892 24.8756L23.2884 23.512L25.0339 23.3192C25.5101 23.2667 25.8704 22.8655 25.8704 22.3887V19.4101C25.8704 18.9327 25.5101 18.5321 25.0339 18.4796ZM16.9352 23.7317C15.3676 23.7317 14.0919 22.4612 14.0919 20.8991C14.0919 19.3377 15.3676 18.0671 16.9352 18.0671C18.5034 18.0671 19.7784 19.3377 19.7784 20.8991C19.7784 22.4611 18.5034 23.7317 16.9352 23.7317Z" fill="#4793FF"/>
<path d="M39.5097 36.0058L37.9978 35.1857L39.504 34.3551C39.9226 34.1243 40.1005 33.6162 39.9163 33.1756L38.7766 30.4547C38.5924 30.0141 38.1049 29.7826 37.6457 29.9161L35.9627 30.4066L36.4433 28.7272C36.5742 28.2686 36.338 27.7849 35.895 27.6039L33.1551 26.4887C32.7116 26.3077 32.2028 26.4881 31.9741 26.9075L31.1508 28.4134L30.3168 26.9131C30.085 26.4956 29.575 26.319 29.1326 26.5025L26.4009 27.6371C25.9585 27.8206 25.7261 28.3061 25.8608 28.7641L26.3527 30.4404L24.6666 29.9617C24.2061 29.8307 23.7206 30.0659 23.5395 30.5078L22.4193 33.2368C22.2376 33.678 22.4186 34.1847 22.8397 34.4132L24.3516 35.2332L22.8454 36.0632C22.4262 36.2947 22.2489 36.8021 22.4331 37.2427L23.5722 39.9642C23.757 40.4041 24.2439 40.6357 24.7038 40.5021L26.3867 40.0116L25.9061 41.6916C25.7746 42.1503 26.0108 42.6339 26.4544 42.8143L29.1943 43.9301C29.6346 44.1103 30.1449 43.9321 30.3753 43.5114L31.1986 42.0049L32.0326 43.5051C32.2644 43.9226 32.7744 44.0999 33.2161 43.9158L35.9485 42.7812C36.3902 42.5977 36.6233 42.1122 36.4886 41.6548L35.9961 39.9785L37.6828 40.4571C38.1433 40.5876 38.6288 40.3523 38.81 39.9111L39.9302 37.1821C40.1112 36.7403 39.9301 36.2336 39.5097 36.0058ZM32.2618 37.8056C30.835 38.3991 29.1715 37.7324 28.5683 36.2916C27.9686 34.8606 28.6503 33.2099 30.0876 32.6127C31.525 32.0161 33.1821 32.6951 33.7811 34.1268C34.3818 35.5593 33.7028 37.2074 32.2618 37.8056Z" fill="#525CDD"/>
<path d="M33.8524 17.9341C33.0009 17.086 31.8974 16.5794 30.7441 16.4567L30.8536 16.3099C31.1634 15.8951 31.0768 15.3087 30.6604 15.0002C30.2438 14.6916 29.6551 14.7778 29.3454 15.1927L27.9357 17.0805C27.9343 17.0824 27.9332 17.0844 27.9318 17.0863C27.6583 17.4585 27.6975 17.9746 28.0253 18.301L29.5663 19.8359C29.9333 20.2015 30.5283 20.2015 30.8953 19.8359C31.2624 19.4704 31.2624 18.8777 30.8953 18.5121L30.7243 18.3417C31.3927 18.4499 32.0257 18.7624 32.5232 19.2579C33.4387 20.1699 33.7321 21.5376 33.2704 22.7424C33.0854 23.2254 33.3284 23.7664 33.8133 23.9508C34.2984 24.1352 34.8414 23.8929 35.0264 23.41C35.7521 21.5166 35.2912 19.3672 33.8524 17.9341Z" fill="#453D81"/>
<path d="M20.2413 37.2006L18.7003 35.6657C18.3333 35.3001 17.7383 35.3001 17.3713 35.6657C17.0042 36.0313 17.0042 36.624 17.3713 36.9895L17.5423 37.1599C16.8739 37.0517 16.2408 36.7392 15.7433 36.2437C14.8278 35.3318 14.5344 33.9641 14.9961 32.7592C15.1812 32.2762 14.9381 31.7352 14.4533 31.5509C13.9684 31.3667 13.4252 31.6086 13.2401 32.0917C12.5146 33.9851 12.9754 36.1345 14.4143 37.5675C15.2658 38.4157 16.3697 38.9217 17.5231 39.0443L17.4131 39.1917C17.1033 39.6065 17.1899 40.1929 17.6063 40.5014C18.0229 40.81 18.6115 40.7237 18.9213 40.3089L20.331 38.421C20.6119 38.0442 20.5664 37.5245 20.2413 37.2006Z" fill="#5E54AC"/>
</g>
<defs>
<clipPath id="clip0">
<rect width="32" height="32" fill="white" transform="translate(8 12)"/>
</clipPath>
</defs>
</svg>
