<svg width="49" height="55" viewBox="0 0 49 55" fill="none" xmlns="http://www.w3.org/2000/svg">
<rect width="49" height="55" rx="4" fill="#F4F5F6"/>
<g clip-path="url(#clip0)">
<path d="M24.2281 30.8125V36.4375C24.2281 37.1762 23.7494 38.2069 21.4688 38.9212C20.025 39.3737 18.1238 39.6225 16.1144 39.6225H16.1138C14.1044 39.6225 12.2031 39.3737 10.7594 38.9212C8.47875 38.2069 8 37.1762 8 36.4375V30.8125H24.2281Z" fill="#4793FF"/>
<path d="M16.1144 30.8125H24.2282V36.4375C24.2282 37.1762 23.7494 38.2069 21.4688 38.9212C20.0251 39.3737 18.1238 39.6225 16.1144 39.6225V30.8125Z" fill="#525CDD"/>
<path d="M24.2281 25.1875V30.8125C24.2281 31.5512 23.7494 32.5819 21.4688 33.2962C20.025 33.7487 18.1238 33.9975 16.1144 33.9975H16.1138C14.1044 33.9975 12.2031 33.7487 10.7594 33.2962C8.47875 32.5819 8 31.5512 8 30.8125V25.1875H24.2281Z" fill="#5E54AC"/>
<path d="M16.1144 25.1875H24.2282V30.8125C24.2282 31.5512 23.7494 32.5819 21.4688 33.2962C20.0251 33.7487 18.1238 33.9975 16.1144 33.9975V25.1875Z" fill="#453D81"/>
<path d="M24.2281 19.5625V25.1875C24.2281 25.9262 23.7494 26.9569 21.4688 27.6713C20.025 28.1238 18.1238 28.3725 16.1144 28.3725H16.1138C14.1044 28.3725 12.2031 28.1238 10.7594 27.6713C8.47875 26.9569 8 25.9262 8 25.1875V19.5625H24.2281Z" fill="#4793FF"/>
<path d="M24.2282 19.5625V25.1875C24.2282 25.9262 23.7494 26.9569 21.4688 27.6713C20.0251 28.1238 18.1238 28.3725 16.1144 28.3725V19.5625H24.2282Z" fill="#525CDD"/>
<path d="M24.2281 19.5624C24.2281 20.3012 23.7494 21.3318 21.4688 22.0462C20.025 22.4987 18.1238 22.7474 16.1144 22.7474H16.1138C14.1044 22.7474 12.2031 22.4987 10.7594 22.0462C8.47875 21.3318 8 20.3012 8 19.5624C8 18.8237 8.47875 17.7931 10.7594 17.0787C12.2031 16.6262 14.1044 16.3774 16.1138 16.3774H16.1144C18.1238 16.3774 20.025 16.6262 21.4688 17.0787C23.7494 17.7931 24.2281 18.8237 24.2281 19.5624Z" fill="#A8EBFA"/>
<path d="M21.4688 22.0462C20.0251 22.4987 18.1238 22.7474 16.1144 22.7474V16.3774C18.1238 16.3774 20.0251 16.6262 21.4688 17.0787C23.7494 17.7931 24.2282 18.8237 24.2282 19.5624C24.2282 20.3012 23.7494 21.3318 21.4688 22.0462Z" fill="#7DD5F4"/>
<path d="M38.5406 24.0298V27.4455C38.5406 27.963 38.1206 28.383 37.6031 28.383C37.085 28.383 36.6656 27.963 36.6656 27.4455V24.0298C36.6656 22.0373 35.0444 20.4161 33.0519 20.4161H33.0513C31.0581 20.4167 29.4375 22.0373 29.4375 24.0298V27.4455C29.4375 27.963 29.0181 28.383 28.5 28.383C27.9825 28.383 27.5625 27.963 27.5625 27.4455V24.0298C27.5625 21.0036 30.0244 18.5417 33.0513 18.5411H33.0519C36.0781 18.5411 38.5406 21.0036 38.5406 24.0298Z" fill="#5E54AC"/>
<path d="M38.5406 24.0298V27.4455C38.5406 27.963 38.1206 28.383 37.6031 28.383C37.085 28.383 36.6656 27.963 36.6656 27.4455V24.0298C36.6656 22.0373 35.0443 20.4161 33.0518 20.4161H33.0512V18.5411H33.0518C36.0781 18.5411 38.5406 21.0036 38.5406 24.0298Z" fill="#453D81"/>
<path d="M40 27.4453V36.5209C40 37.039 39.58 37.4584 39.0625 37.4584H27.0406C26.5231 37.4584 26.1031 37.039 26.1031 36.5209V27.4453C26.1031 26.9278 26.5231 26.5078 27.0406 26.5078H39.0625C39.58 26.5078 40 26.9278 40 27.4453Z" fill="#FABE2C"/>
<path d="M40 27.4453V36.5209C40 37.039 39.58 37.4584 39.0625 37.4584H33.0512V26.5078H39.0625C39.58 26.5078 40 26.9278 40 27.4453Z" fill="#FF9100"/>
<path d="M34.9623 32.7825C35.4037 32.7825 35.7615 32.4247 35.7615 31.9833C35.7615 31.542 35.4037 31.1842 34.9623 31.1842C34.521 31.1842 34.1632 31.542 34.1632 31.9833C34.1632 32.4247 34.521 32.7825 34.9623 32.7825Z" fill="#DFE7F4"/>
<path d="M31.1407 32.7825C31.582 32.7825 31.9398 32.4247 31.9398 31.9833C31.9398 31.542 31.582 31.1842 31.1407 31.1842C30.6993 31.1842 30.3416 31.542 30.3416 31.9833C30.3416 32.4247 30.6993 32.7825 31.1407 32.7825Z" fill="#F0F7FF"/>
</g>
<defs>
<clipPath id="clip0">
<rect width="32" height="32" fill="white" transform="translate(8 12)"/>
</clipPath>
</defs>
</svg>
