<svg width="49" height="55" viewBox="0 0 49 55" fill="none" xmlns="http://www.w3.org/2000/svg">
<rect width="49" height="55" rx="4" fill="#F4F5F6"/>
<path d="M24.9375 33.2635V39.3123C24.9375 39.8298 24.5175 40.2498 24 40.2498C23.4825 40.2498 23.0625 39.8298 23.0625 39.3123V33.2635C23.0625 32.746 23.4825 32.326 24 32.326C24.5175 32.326 24.9375 32.746 24.9375 33.2635Z" fill="#5E54AC"/>
<path d="M24.9375 33.2635V39.3123C24.9375 39.8298 24.5175 40.2498 24 40.2498V32.326C24.5175 32.326 24.9375 32.746 24.9375 33.2635Z" fill="#453D81"/>
<path d="M33.1661 40.9638L29.1186 38.3663C28.85 38.1939 28.6875 37.8966 28.6875 37.5773V33.2635C28.6875 32.7458 29.1072 32.326 29.625 32.326C30.1427 32.326 30.5625 32.7458 30.5625 33.2635V37.065L34.1788 39.3858C34.6146 39.6655 34.7411 40.2454 34.4614 40.6812C34.1818 41.1169 33.6019 41.2435 33.1661 40.9638Z" fill="#453D81"/>
<path d="M13.5385 40.6811C13.2588 40.2454 13.3854 39.6654 13.8211 39.3857L17.4375 37.065V33.2635C17.4375 32.7458 17.8572 32.326 18.375 32.326C18.8927 32.326 19.3125 32.7458 19.3125 33.2635V37.5774C19.3125 37.8966 19.15 38.1939 18.8813 38.3664L14.8338 40.9639C14.3981 41.2434 13.8181 41.1169 13.5385 40.6811Z" fill="#5E54AC"/>
<path d="M24 44C25.5533 44 26.8125 42.7408 26.8125 41.1875C26.8125 39.6342 25.5533 38.375 24 38.375C22.4467 38.375 21.1875 39.6342 21.1875 41.1875C21.1875 42.7408 22.4467 44 24 44Z" fill="#FFE14D"/>
<path d="M35.25 44C36.8033 44 38.0625 42.7408 38.0625 41.1875C38.0625 39.6342 36.8033 38.375 35.25 38.375C33.6967 38.375 32.4375 39.6342 32.4375 41.1875C32.4375 42.7408 33.6967 44 35.25 44Z" fill="#FABE2C"/>
<path d="M12.75 44C14.3033 44 15.5625 42.7408 15.5625 41.1875C15.5625 39.6342 14.3033 38.375 12.75 38.375C11.1967 38.375 9.9375 39.6342 9.9375 41.1875C9.9375 42.7408 11.1967 44 12.75 44Z" fill="#FFE14D"/>
<path d="M26.8125 41.1875C26.8125 42.7381 25.5506 44 24 44V38.375C25.5506 38.375 26.8125 39.6369 26.8125 41.1875Z" fill="#FABE2C"/>
<path d="M34.6562 26.9594V31.8751C34.6562 33.1044 33.6562 34.1044 32.4269 34.1044H15.5731C14.3437 34.1044 13.3438 33.1044 13.3438 31.8751V26.9594C13.3438 25.7301 14.3437 24.7294 15.5731 24.7294H32.4269C33.6562 24.7294 34.6562 25.7301 34.6562 26.9594Z" fill="#4793FF"/>
<path d="M34.6562 26.9594V31.8751C34.6562 33.1044 33.6562 34.1044 32.4269 34.1044H24V24.7294H32.4269C33.6562 24.7294 34.6562 25.7301 34.6562 26.9594Z" fill="#525CDD"/>
<path d="M29.9688 30.4062C30.5151 30.4062 30.958 29.9634 30.958 29.417C30.958 28.8707 30.5151 28.4279 29.9688 28.4279C29.4225 28.4279 28.9796 28.8707 28.9796 29.417C28.9796 29.9634 29.4225 30.4062 29.9688 30.4062Z" fill="#DFE7F4"/>
<path d="M21.7404 30.3549H17.4062C16.8885 30.3549 16.4688 29.9351 16.4688 29.4174C16.4688 28.8996 16.8885 28.4799 17.4062 28.4799H21.7404C22.2582 28.4799 22.6779 28.8996 22.6779 29.4174C22.6779 29.9351 22.2582 30.3549 21.7404 30.3549Z" fill="#F0F7FF"/>
<path d="M27.6475 19.0571C27.2811 19.4235 26.6887 19.4239 26.3219 19.0571C25.7019 18.4371 24.8775 18.0958 24 18.0958C23.1225 18.0958 22.2981 18.4371 21.6781 19.0571C21.3119 19.4233 20.7188 19.4233 20.3525 19.0571C19.9863 18.6915 19.9863 18.0977 20.3525 17.7315C21.3263 16.7571 22.6219 16.2208 24 16.2208C25.3781 16.2208 26.6738 16.7571 27.6475 17.7315C28.0138 18.0977 28.0138 18.6915 27.6475 19.0571Z" fill="#5E54AC"/>
<path d="M30.6313 16.0731C30.2677 16.4379 29.6725 16.44 29.3056 16.0731C27.8888 14.6556 26.005 13.875 24 13.875C21.995 13.875 20.1113 14.6556 18.6944 16.0731C18.3281 16.4387 17.735 16.4394 17.3688 16.0731C17.0025 15.7069 17.0019 15.1137 17.3681 14.7475C19.1388 12.9756 21.4944 12 24 12C26.5056 12 28.8612 12.9756 30.6319 14.7475C30.9981 15.1137 30.9975 15.7069 30.6313 16.0731Z" fill="#5E54AC"/>
<path d="M24 22.3162C24.5178 22.3162 24.9375 21.8964 24.9375 21.3787C24.9375 20.8609 24.5178 20.4412 24 20.4412C23.4822 20.4412 23.0625 20.8609 23.0625 21.3787C23.0625 21.8964 23.4822 22.3162 24 22.3162Z" fill="#5E54AC"/>
<path d="M24.9375 21.3787C24.9375 21.8962 24.5175 22.3162 24 22.3162V20.4412C24.5175 20.4412 24.9375 20.8605 24.9375 21.3787Z" fill="#453D81"/>
<path d="M27.6475 17.7315C28.0138 18.0977 28.0138 18.6915 27.6475 19.0571C27.2811 19.4235 26.6887 19.4239 26.3219 19.0571C25.7019 18.4371 24.8775 18.0958 24 18.0958V16.2208C25.3781 16.2208 26.6738 16.7571 27.6475 17.7315Z" fill="#453D81"/>
<path d="M30.6313 16.0731C30.2677 16.4379 29.6725 16.44 29.3056 16.0731C27.8888 14.6556 26.005 13.875 24 13.875V12C26.5056 12 28.8612 12.9756 30.6319 14.7475C30.9981 15.1137 30.9975 15.7069 30.6313 16.0731Z" fill="#453D81"/>
</svg>
