<svg width="49" height="55" viewBox="0 0 49 55" fill="none" xmlns="http://www.w3.org/2000/svg">
<rect width="49" height="55" rx="4" fill="#F4F5F6"/>
<g clip-path="url(#clip0)">
<path d="M24.9375 23.8832V28.2582C24.9375 28.7757 24.5175 29.1957 24 29.1957C23.4825 29.1957 23.0625 28.7757 23.0625 28.2582V23.8832C23.0625 23.3657 23.4825 22.9457 24 22.9457C24.5175 22.9457 24.9375 23.3657 24.9375 23.8832Z" fill="#5E54AC"/>
<path d="M24.9375 35.7582V39.6189C24.9375 40.1364 24.5175 40.5564 24 40.5564C23.4825 40.5564 23.0625 40.1364 23.0625 39.6189V35.7582C23.0625 35.2407 23.4825 34.8207 24 34.8207C24.5175 34.8207 24.9375 35.2407 24.9375 35.7582Z" fill="#5E54AC"/>
<path d="M34.6562 29.5501V34.4664C34.6562 35.6957 33.6562 36.6957 32.4269 36.6957H15.5731C14.3437 36.6957 13.3438 35.6957 13.3438 34.4664V29.5501C13.3438 28.3207 14.3437 27.3207 15.5731 27.3207H32.4269C33.6562 27.3207 34.6562 28.3207 34.6562 29.5501Z" fill="#4793FF"/>
<path d="M24.9375 23.8832V28.2582C24.9375 28.7757 24.5175 29.1957 24 29.1957V22.9457C24.5175 22.9457 24.9375 23.3657 24.9375 23.8832Z" fill="#453D81"/>
<path d="M24.9375 35.7582V39.6189C24.9375 40.1364 24.5175 40.5564 24 40.5564V34.8207C24.5175 34.8207 24.9375 35.2407 24.9375 35.7582Z" fill="#453D81"/>
<path d="M34.6562 29.5501V34.4664C34.6562 35.6957 33.6562 36.6957 32.4269 36.6957H24V27.3207H32.4269C33.6562 27.3207 34.6562 28.3207 34.6562 29.5501Z" fill="#525CDD"/>
<path d="M24.9375 12.9375V16.3831C24.9375 16.9006 24.5175 17.3206 24 17.3206C23.4825 17.3206 23.0625 16.9006 23.0625 16.3831V12.9375C23.0625 12.42 23.4825 12 24 12C24.5175 12 24.9375 12.42 24.9375 12.9375Z" fill="#5E54AC"/>
<path d="M34.6562 17.6751V22.5914C34.6562 23.8207 33.6562 24.8207 32.4269 24.8207H15.5731C14.3437 24.8207 13.3438 23.8207 13.3438 22.5914V17.6751C13.3438 16.4457 14.3437 15.4457 15.5731 15.4457H32.4269C33.6562 15.4457 34.6562 16.4457 34.6562 17.6751Z" fill="#4793FF"/>
<path d="M24.9375 12.9375V16.3831C24.9375 16.9006 24.5175 17.3206 24 17.3206V12C24.5175 12 24.9375 12.42 24.9375 12.9375Z" fill="#453D81"/>
<path d="M34.6562 17.6751V22.5914C34.6562 23.8207 33.6562 24.8207 32.4269 24.8207H24V15.4457H32.4269C33.6562 15.4457 34.6562 16.4457 34.6562 17.6751Z" fill="#525CDD"/>
<path d="M22.125 42.4313H14.2812C13.7635 42.4313 13.3438 42.0116 13.3438 41.4938C13.3438 40.9761 13.7635 40.5563 14.2812 40.5563H22.125C22.6427 40.5563 23.0625 40.9761 23.0625 41.4938C23.0625 42.0116 22.6427 42.4313 22.125 42.4313Z" fill="#5E54AC"/>
<path d="M33.7188 42.4313H25.875C25.3572 42.4313 24.9375 42.0116 24.9375 41.4938C24.9375 40.9761 25.3572 40.5563 25.875 40.5563H33.7188C34.2365 40.5563 34.6562 40.9761 34.6562 41.4938C34.6562 42.0116 34.2365 42.4313 33.7188 42.4313Z" fill="#453D81"/>
<path d="M24 44.0002C25.3841 44.0002 26.5062 42.8781 26.5062 41.4939C26.5062 40.1098 25.3841 38.9877 24 38.9877C22.6158 38.9877 21.4937 40.1098 21.4937 41.4939C21.4937 42.8781 22.6158 44.0002 24 44.0002Z" fill="#FABE2C"/>
<path d="M18.0313 21.1221C18.5776 21.1221 19.0205 20.6792 19.0205 20.1329C19.0205 19.5866 18.5776 19.1437 18.0313 19.1437C17.485 19.1437 17.0421 19.5866 17.0421 20.1329C17.0421 20.6792 17.485 21.1221 18.0313 21.1221Z" fill="#F0F7FF"/>
<path d="M21.8845 21.1221C22.4308 21.1221 22.8737 20.6792 22.8737 20.1329C22.8737 19.5866 22.4308 19.1437 21.8845 19.1437C21.3382 19.1437 20.8953 19.5866 20.8953 20.1329C20.8953 20.6792 21.3382 21.1221 21.8845 21.1221Z" fill="#F0F7FF"/>
<path d="M29.9687 21.0707H25.6345C25.1168 21.0707 24.697 20.651 24.697 20.1332C24.697 19.6155 25.1168 19.1957 25.6345 19.1957H29.9687C30.4865 19.1957 30.9062 19.6155 30.9062 20.1332C30.9062 20.651 30.4865 21.0707 29.9687 21.0707Z" fill="#DFE7F4"/>
<path d="M18.0313 32.9971C18.5776 32.9971 19.0205 32.5542 19.0205 32.0079C19.0205 31.4616 18.5776 31.0187 18.0313 31.0187C17.485 31.0187 17.0421 31.4616 17.0421 32.0079C17.0421 32.5542 17.485 32.9971 18.0313 32.9971Z" fill="#F0F7FF"/>
<path d="M21.8845 32.9971C22.4308 32.9971 22.8737 32.5542 22.8737 32.0079C22.8737 31.4616 22.4308 31.0187 21.8845 31.0187C21.3382 31.0187 20.8953 31.4616 20.8953 32.0079C20.8953 32.5542 21.3382 32.9971 21.8845 32.9971Z" fill="#F0F7FF"/>
<path d="M29.9687 32.9457H25.6345C25.1168 32.9457 24.697 32.526 24.697 32.0082C24.697 31.4905 25.1168 31.0707 25.6345 31.0707H29.9687C30.4865 31.0707 30.9062 31.4905 30.9062 32.0082C30.9062 32.526 30.4865 32.9457 29.9687 32.9457Z" fill="#DFE7F4"/>
<path d="M26.5063 41.4939C26.5063 42.8758 25.3819 44.0002 24 44.0002V38.9877C25.3819 38.9877 26.5063 40.112 26.5063 41.4939Z" fill="#FF9100"/>
</g>
<defs>
<clipPath id="clip0">
<rect width="32" height="32" fill="white" transform="translate(8 12)"/>
</clipPath>
</defs>
</svg>
