<svg width="49" height="55" viewBox="0 0 49 55" fill="none" xmlns="http://www.w3.org/2000/svg">
<rect width="49" height="55" rx="4" fill="#F4F5F6"/>
<path d="M37.8563 20.0001C36.7819 18.1389 34.2757 17.3307 30.7982 17.7245C28.6982 17.962 26.3675 18.6195 24 19.627C22.7507 20.1589 21.4913 20.7882 20.25 21.5051C16.6569 23.5795 13.6207 26.1526 11.7019 28.7495C9.62253 31.5639 9.0694 34.1389 10.1438 36.0001C11.4569 38.274 14.5853 38.5716 17.2019 38.2757C19.3019 38.0382 21.6325 37.3807 24 36.3732C25.2494 35.8414 26.5088 35.212 27.75 34.4951C31.3432 32.4207 34.3794 29.8476 36.2982 27.2507C38.3775 24.4364 38.9307 21.8614 37.8563 20.0001ZM34.79 26.1364C33.905 27.3339 32.755 28.5301 31.4032 29.6707C30.0519 30.812 28.5 31.897 26.8125 32.8714C25.8788 33.4101 24.9369 33.8964 24 34.3245C21.5488 35.4451 19.1313 36.1701 16.9907 36.4126C14.34 36.7126 12.4363 36.2207 11.7675 35.0626C11.0988 33.9045 11.6244 32.0095 13.21 29.8639C14.9794 27.4695 17.8125 25.0776 21.1875 23.1289C22.1213 22.5901 23.0632 22.1039 24 21.6757C26.4513 20.5551 28.8688 19.8301 31.0094 19.5876C32.7373 19.3928 35.3624 19.4311 36.2325 20.9376C36.9013 22.0957 36.3757 23.9907 34.79 26.1364Z" fill="#BDE239"/>
<path d="M36.2981 27.2507C34.3794 29.8476 31.3431 32.4207 27.75 34.4951C26.5087 35.212 25.2494 35.8414 24 36.3732V34.3245C24.9369 33.8964 25.8787 33.4101 26.8125 32.8714C28.5 31.897 30.0519 30.812 31.4031 29.6707C32.755 28.5301 33.905 27.3339 34.79 26.1364C36.3756 23.9907 36.9012 22.0957 36.2325 20.9376C35.3626 19.4315 32.7387 19.3927 31.0094 19.5876C28.8687 19.8301 26.4512 20.5551 24 21.6757V19.627C26.3675 18.6195 28.6981 17.962 30.7981 17.7245C34.2756 17.3307 36.7819 18.1389 37.8562 20.0001C38.9306 21.8614 38.3775 24.4364 36.2981 27.2507Z" fill="#8BBC43"/>
<path d="M36.2982 28.7495C34.3794 26.1526 31.3432 23.5795 27.75 21.5051C26.5088 20.7882 25.2494 20.1589 24 19.627C21.6325 18.6195 19.3019 17.962 17.2019 17.7245C13.725 17.3307 11.2182 18.1389 10.1438 20.0001C9.0694 21.8614 9.62253 24.4364 11.7019 27.2507C13.6207 29.8476 16.6569 32.4207 20.25 34.4951C21.4913 35.212 22.7507 35.8414 24 36.3732C26.3675 37.3807 28.6982 38.0382 30.7982 38.2757C33.4115 38.5709 36.5432 38.2756 37.8563 36.0001C38.9307 34.1389 38.3775 31.5639 36.2982 28.7495ZM36.2325 35.0626C35.5638 36.2207 33.66 36.7126 31.0094 36.4126C29.53 36.2451 27.9182 35.847 26.2544 35.247C25.5107 34.9789 24.7569 34.6707 24 34.3245C23.0632 33.8964 22.1213 33.4101 21.1875 32.8714C17.8125 30.9226 14.9794 28.5307 13.21 26.1364C11.6244 23.9907 11.0988 22.0957 11.7675 20.9376C12.6374 19.4314 15.2623 19.3925 16.9907 19.5876C19.1313 19.8301 21.5488 20.5551 24 21.6757C24.9369 22.1039 25.8788 22.5901 26.8125 23.1289C30.1875 25.0776 33.0207 27.4695 34.79 29.8639C36.3757 32.0095 36.9013 33.9045 36.2325 35.0626Z" fill="#DF5CCB"/>
<path d="M24 30.8125C25.5533 30.8125 26.8125 29.5533 26.8125 28C26.8125 26.4467 25.5533 25.1875 24 25.1875C22.4467 25.1875 21.1875 26.4467 21.1875 28C21.1875 29.5533 22.4467 30.8125 24 30.8125Z" fill="#FABE2C"/>
<path d="M29.5 16.975C28.1019 13.7669 26.1488 12 24 12C21.8512 12 19.8981 13.7669 18.5 16.975C17.2106 19.935 16.5 23.8506 16.5 28C16.5 32.1494 17.2106 36.065 18.5 39.025C19.8981 42.2331 21.8512 44 24 44C26.1488 44 28.1019 42.2331 29.5 39.025C30.7894 36.065 31.5 32.1494 31.5 28C31.5 23.8506 30.7894 19.935 29.5 16.975ZM27.7806 38.2763C26.715 40.7225 25.3375 42.125 24 42.125C22.6625 42.125 21.285 40.7225 20.2194 38.2763C19.03 35.5469 18.375 31.8975 18.375 28C18.375 24.1025 19.03 20.4531 20.2194 17.7238C21.285 15.2775 22.6625 13.875 24 13.875C25.3375 13.875 26.715 15.2775 27.7806 17.7238C28.97 20.4531 29.625 24.1025 29.625 28C29.625 31.8975 28.97 35.5469 27.7806 38.2763Z" fill="#4793FF"/>
<path d="M24 30.8125V25.1875C25.5506 25.1875 26.8125 26.4494 26.8125 28C26.8125 29.5506 25.5506 30.8125 24 30.8125Z" fill="#FF9100"/>
<path d="M37.8562 36.0002C36.5437 38.2748 33.4136 38.5712 30.7981 38.2758C28.6981 38.0383 26.3675 37.3808 24 36.3733V34.3246C24.7569 34.6708 25.5106 34.979 26.2544 35.2471C27.9181 35.8471 29.53 36.2452 31.0094 36.4127C33.66 36.7127 35.5637 36.2208 36.2325 35.0627C36.9012 33.9046 36.3756 32.0096 34.79 29.864C33.0206 27.4696 30.1875 25.0777 26.8125 23.129C25.8787 22.5902 24.9369 22.104 24 21.6758V19.6271C25.2494 20.159 26.5087 20.7883 27.75 21.5052C31.3431 23.5796 34.3794 26.1527 36.2981 28.7496C38.3775 31.5639 38.9306 34.139 37.8562 36.0002Z" fill="#C63EBA"/>
<path d="M31.5 28C31.5 32.1494 30.7894 36.065 29.5 39.025C28.1019 42.2331 26.1488 44 24 44V42.125C25.3375 42.125 26.715 40.7225 27.7806 38.2763C28.97 35.5469 29.625 31.8975 29.625 28C29.625 24.1025 28.97 20.4531 27.7806 17.7238C26.715 15.2775 25.3375 13.875 24 13.875V12C26.1488 12 28.1019 13.7669 29.5 16.975C30.7894 19.935 31.5 23.8506 31.5 28Z" fill="#525CDD"/>
</svg>
