<svg width="49" height="55" viewBox="0 0 49 55" fill="none" xmlns="http://www.w3.org/2000/svg">
<rect width="49" height="55" rx="4" fill="#F4F5F6"/>
<g clip-path="url(#clip0)">
<path d="M32.2529 12.9375V43.0625C32.2529 43.58 31.8329 44 31.3154 44H9.65918C9.14168 44 8.72168 43.58 8.72168 43.0625V19.8681L16.5904 12H31.3154C31.8329 12 32.2529 12.42 32.2529 12.9375Z" fill="#F0F7FF"/>
<path d="M16.5904 12V18.9306C16.5904 19.4481 16.1704 19.8681 15.6529 19.8681H8.72168V18.9313C8.72168 18.6931 8.8123 18.4525 9.01293 18.2519L14.9898 12.2744C15.1598 12.1044 15.3979 12 15.6529 12H16.5904V12Z" fill="#DFE7F4"/>
<path d="M32.2529 12.9375V43.0625C32.2529 43.58 31.8329 44 31.3154 44H20.4873V12H31.3154C31.8329 12 32.2529 12.42 32.2529 12.9375Z" fill="#DFE7F4"/>
<path d="M18.6124 25.8839H12.1329C11.6152 25.8839 11.1954 25.4641 11.1954 24.9464C11.1954 24.4286 11.6152 24.0089 12.1329 24.0089H18.6124C19.1302 24.0089 19.5499 24.4286 19.5499 24.9464C19.5499 25.4641 19.1302 25.8839 18.6124 25.8839Z" fill="#4793FF"/>
<path d="M18.6124 29.6339H12.1329C11.6152 29.6339 11.1954 29.2141 11.1954 28.6964C11.1954 28.1786 11.6152 27.7589 12.1329 27.7589H18.6124C19.1302 27.7589 19.5499 28.1786 19.5499 28.6964C19.5499 29.2141 19.1302 29.6339 18.6124 29.6339Z" fill="#4793FF"/>
<path d="M18.6124 33.3839H12.1329C11.6152 33.3839 11.1954 32.9641 11.1954 32.4464C11.1954 31.9286 11.6152 31.5089 12.1329 31.5089H18.6124C19.1302 31.5089 19.5499 31.9286 19.5499 32.4464C19.5499 32.9641 19.1302 33.3839 18.6124 33.3839Z" fill="#4793FF"/>
<path d="M18.6124 37.1339H12.1329C11.6152 37.1339 11.1954 36.7141 11.1954 36.1964C11.1954 35.6786 11.6152 35.2589 12.1329 35.2589H18.6124C19.1302 35.2589 19.5499 35.6786 19.5499 36.1964C19.5499 36.7141 19.1302 37.1339 18.6124 37.1339Z" fill="#4793FF"/>
<path d="M36.6285 27.9712C36.1107 27.9712 35.691 27.5515 35.691 27.0337V23.0272C35.691 20.5999 33.7163 18.6252 31.289 18.6252C28.8618 18.6252 26.8871 20.5999 26.8871 23.0272V27.0337C26.8871 27.5515 26.4673 27.9712 25.9496 27.9712C25.4318 27.9712 25.0121 27.5515 25.0121 27.0337V23.0272C25.0121 19.5661 27.8279 16.7502 31.289 16.7502C34.7501 16.7502 37.566 19.5661 37.566 23.0272V27.0337C37.566 27.5515 37.1462 27.9712 36.6285 27.9712Z" fill="#453D81"/>
<path d="M39.2783 27.0337V37.6806C39.2783 38.1987 38.8583 38.6181 38.3408 38.6181H24.2371C23.7196 38.6181 23.2996 38.1987 23.2996 37.6806V27.0337C23.2996 26.5162 23.7196 26.0962 24.2371 26.0962H38.3408C38.8583 26.0962 39.2783 26.5162 39.2783 27.0337Z" fill="#FABE2C"/>
<path d="M31.2891 33.2952C31.8068 33.2952 32.2266 32.8754 32.2266 32.3577C32.2266 31.8399 31.8068 31.4202 31.2891 31.4202C30.7713 31.4202 30.3516 31.8399 30.3516 32.3577C30.3516 32.8754 30.7713 33.2952 31.2891 33.2952Z" fill="#453D81"/>
<path d="M27.5391 33.2952C28.0568 33.2952 28.4766 32.8754 28.4766 32.3577C28.4766 31.8399 28.0568 31.4202 27.5391 31.4202C27.0213 31.4202 26.6016 31.8399 26.6016 32.3577C26.6016 32.8754 27.0213 33.2952 27.5391 33.2952Z" fill="#453D81"/>
<path d="M35.0391 33.2952C35.5568 33.2952 35.9766 32.8754 35.9766 32.3577C35.9766 31.8399 35.5568 31.4202 35.0391 31.4202C34.5213 31.4202 34.1016 31.8399 34.1016 32.3577C34.1016 32.8754 34.5213 33.2952 35.0391 33.2952Z" fill="#453D81"/>
</g>
<defs>
<clipPath id="clip0">
<rect width="32" height="32" fill="white" transform="translate(8 12)"/>
</clipPath>
</defs>
</svg>
