<svg width="64" height="64" viewBox="0 0 64 64" fill="none" xmlns="http://www.w3.org/2000/svg">
<circle opacity="0.2" cx="32" cy="32" r="32" fill="#B9CFF9"/>
<path d="M40 19H24C23.4696 19 22.9609 19.2107 22.5858 19.5858C22.2107 19.9609 22 20.4696 22 21V43C22 43.5304 22.2107 44.0391 22.5858 44.4142C22.9609 44.7893 23.4696 45 24 45H40C40.5304 45 41.0391 44.7893 41.4142 44.4142C41.7893 44.0391 42 43.5304 42 43V21C42 20.4696 41.7893 19.9609 41.4142 19.5858C41.0391 19.2107 40.5304 19 40 19ZM40 21V27H24V21H40ZM24 35V29H40V35H24ZM24 43V37H40V43H24Z" fill="#0F42A4"/>
<path d="M27 25C27.5523 25 28 24.5523 28 24C28 23.4477 27.5523 23 27 23C26.4477 23 26 23.4477 26 24C26 24.5523 26.4477 25 27 25Z" fill="#FFC31A"/>
<path d="M27 33C27.5523 33 28 32.5523 28 32C28 31.4477 27.5523 31 27 31C26.4477 31 26 31.4477 26 32C26 32.5523 26.4477 33 27 33Z" fill="#FFC31A"/>
<path d="M27 41C27.5523 41 28 40.5523 28 40C28 39.4477 27.5523 39 27 39C26.4477 39 26 39.4477 26 40C26 40.5523 26.4477 41 27 41Z" fill="#FFC31A"/>
</svg>
