<svg width="64" height="64" viewBox="0 0 64 64" fill="none" xmlns="http://www.w3.org/2000/svg">
<circle opacity="0.2" cx="32" cy="32" r="32" fill="#B9CFF9"/>
<path d="M28.1 18C26.1822 17.9935 24.3047 18.5498 22.7 19.6L29.1 26C29.3131 26.1819 29.4877 26.4045 29.6135 26.6549C29.7393 26.9053 29.8137 27.1783 29.8323 27.4578C29.8509 27.7374 29.8134 28.0179 29.722 28.2827C29.6306 28.5476 29.4871 28.7915 29.3 29C29.0914 29.1871 28.8476 29.3306 28.5827 29.422C28.3179 29.5135 28.0374 29.551 27.7578 29.5323C27.4783 29.5137 27.2053 29.4393 26.9549 29.3135C26.7045 29.1877 26.4818 29.0131 26.3 28.8L19.7 22.4C18.5589 24.0791 17.9651 26.0701 18 28.1C18.0105 30.7754 19.078 33.3383 20.9698 35.2301C22.8617 37.122 25.4245 38.1895 28.1 38.2C28.9756 38.2048 29.8485 38.1041 30.7 37.9L37.4 44.6C38.3415 45.5415 39.6185 46.0705 40.95 46.0705C42.2815 46.0705 43.5585 45.5415 44.5 44.6C45.4415 43.6585 45.9704 42.3815 45.9704 41.05C45.9704 39.7185 45.4415 38.4415 44.5 37.5L37.8 30.8C38.0041 29.9485 38.1048 29.0756 38.1 28.2C38.1266 26.8701 37.8876 25.5482 37.397 24.3117C36.9063 23.0753 36.174 21.9492 35.2427 20.9993C34.3115 20.0494 33.2001 19.2949 31.9736 18.7799C30.7471 18.2649 29.4302 17.9997 28.1 18ZM36.1 28.1C36.0985 28.8106 35.9975 29.5174 35.8 30.2L35.5 31.3L36.3 32.1L43 38.8C43.2853 39.0701 43.5124 39.3958 43.6671 39.7569C43.8219 40.1181 43.9012 40.5071 43.9 40.9C43.9112 41.2944 43.8366 41.6865 43.6812 42.0491C43.5258 42.4117 43.2933 42.7362 43 43C42.7291 43.2844 42.4033 43.5108 42.0424 43.6655C41.6814 43.8202 41.2927 43.9 40.9 43.9C40.5073 43.9 40.1186 43.8202 39.7576 43.6655C39.3966 43.5108 39.0708 43.2844 38.8 43L32.1 36.3L31.3 35.5L30.2 35.8C29.5174 35.9976 28.8106 36.0985 28.1 36.1C25.9751 36.0941 23.9339 35.2705 22.4 33.8C21.6242 33.0701 21.0099 32.1858 20.5966 31.2041C20.1832 30.2224 19.98 29.165 20 28.1C20.0014 27.3566 20.1023 26.6167 20.3 25.9L24.7 30.3C25.0718 30.7046 25.5204 31.0311 26.0197 31.2606C26.519 31.49 27.0589 31.6177 27.6081 31.6363C28.1572 31.655 28.7046 31.5641 29.2183 31.369C29.732 31.1739 30.2017 30.8785 30.6 30.5C30.9785 30.1017 31.2739 29.632 31.469 29.1183C31.6641 28.6046 31.7549 28.0573 31.7363 27.5081C31.7177 26.9589 31.59 26.419 31.3605 25.9197C31.1311 25.4204 30.8046 24.9718 30.4 24.6L26 20.2C26.6467 19.9955 27.3217 19.8942 28 19.9C30.1249 19.9059 32.166 20.7295 33.7 22.2C35.2354 23.7807 36.096 25.8964 36.1 28.1Z" fill="#0F42A4"/>
</svg>
