<svg width="64" height="64" viewBox="0 0 64 64" fill="none" xmlns="http://www.w3.org/2000/svg">
<circle opacity="0.2" cx="32" cy="32" r="32" fill="#B9CFF9"/>
<path d="M39 40C39.5523 40 40 39.5523 40 39C40 38.4477 39.5523 38 39 38C38.4477 38 38 38.4477 38 39C38 39.5523 38.4477 40 39 40Z" fill="#FFC31A"/>
<path d="M36 38H24V40H36V38Z" fill="#FFC31A"/>
<path d="M39 26C39.5523 26 40 25.5523 40 25C40 24.4477 39.5523 24 39 24C38.4477 24 38 24.4477 38 25C38 25.5523 38.4477 26 39 26Z" fill="#FFC31A"/>
<path d="M36 24H24V26H36V24Z" fill="#FFC31A"/>
<path d="M42 30C42.5304 30 43.0391 29.7893 43.4142 29.4142C43.7893 29.0391 44 28.5304 44 28V22C44 21.4696 43.7893 20.9609 43.4142 20.5858C43.0391 20.2107 42.5304 20 42 20H22C21.4696 20 20.9609 20.2107 20.5858 20.5858C20.2107 20.9609 20 21.4696 20 22V28C20 28.5304 20.2107 29.0391 20.5858 29.4142C20.9609 29.7893 21.4696 30 22 30H24V34H22C21.4696 34 20.9609 34.2107 20.5858 34.5858C20.2107 34.9609 20 35.4696 20 36V42C20 42.5304 20.2107 43.0391 20.5858 43.4142C20.9609 43.7893 21.4696 44 22 44H42C42.5304 44 43.0391 43.7893 43.4142 43.4142C43.7893 43.0391 44 42.5304 44 42V36C44 35.4696 43.7893 34.9609 43.4142 34.5858C43.0391 34.2107 42.5304 34 42 34H40V30H42ZM22 22H42V28H22V22ZM42 42H22V36H42V42ZM38 34H26V30H38V34Z" fill="#0E347E"/>
</svg>
