<svg width="64" height="64" viewBox="0 0 64 64" fill="none" xmlns="http://www.w3.org/2000/svg">
<circle opacity="0.2" cx="32" cy="32" r="32" fill="#B9CFF9"/>
<path d="M24 30H35V32H24V30ZM24 35H37V37H24V35Z" fill="#FFC31A"/>
<path d="M44 20H20C19.4696 20 18.9609 20.2107 18.5858 20.5858C18.2107 20.9609 18 21.4696 18 22V42C18 42.5304 18.2107 43.0391 18.5858 43.4142C18.9609 43.7893 19.4696 44 20 44H44C44.5304 44 45.0391 43.7893 45.4142 43.4142C45.7893 43.0391 46 42.5304 46 42V22C46 21.4696 45.7893 20.9609 45.4142 20.5858C45.0391 20.2107 44.5304 20 44 20ZM44 22V24H20V22H44ZM20 42V26H44V42H20Z" fill="#0E347E"/>
</svg>
