<svg width="24" height="24" viewBox="0 0 24 24" fill="none" xmlns="http://www.w3.org/2000/svg">
<path d="M22.5 18.75L21.4395 17.6895L19.5 19.629V13.5H18V19.629L16.0605 17.6895L15 18.75L18.75 22.5L22.5 18.75Z" fill="#81909D"/>
<path d="M17.25 10.5H14.25V12H17.25V10.5Z" fill="#81909D"/>
<path d="M19.5 7.5H14.25V9H19.5V7.5Z" fill="#81909D"/>
<path d="M6.75 13.5H11.25C11.8467 13.5 12.419 13.7371 12.841 14.159C13.2629 14.581 13.5 15.1533 13.5 15.75V17.25H12V15.75C12 15.5511 11.921 15.3603 11.7803 15.2197C11.6397 15.079 11.4489 15 11.25 15H6.75C6.55109 15 6.36032 15.079 6.21967 15.2197C6.07902 15.3603 6 15.5511 6 15.75V17.25H4.5V15.75C4.5 15.1533 4.73705 14.581 5.15901 14.159C5.58097 13.7371 6.15326 13.5 6.75 13.5Z" fill="#81909D"/>
<path d="M12 9.75C12 9.15666 11.8241 8.57664 11.4944 8.08329C11.1648 7.58994 10.6962 7.20543 10.1481 6.97836C9.59987 6.7513 8.99667 6.69189 8.41473 6.80765C7.83279 6.9234 7.29824 7.20912 6.87868 7.62868C6.45912 8.04824 6.1734 8.58279 6.05765 9.16473C5.94189 9.74667 6.0013 10.3499 6.22836 10.8981C6.45543 11.4462 6.83994 11.9148 7.33329 12.2444C7.82664 12.5741 8.40666 12.75 9 12.75C9.79565 12.75 10.5587 12.4339 11.1213 11.8713C11.6839 11.3087 12 10.5457 12 9.75ZM10.5 9.75C10.5 10.0467 10.412 10.3367 10.2472 10.5834C10.0824 10.83 9.84812 11.0223 9.57403 11.1358C9.29994 11.2494 8.99834 11.2791 8.70737 11.2212C8.41639 11.1633 8.14912 11.0204 7.93934 10.8107C7.72956 10.6009 7.5867 10.3336 7.52882 10.0426C7.47095 9.75167 7.50065 9.45007 7.61418 9.17598C7.72771 8.90189 7.91997 8.66762 8.16665 8.5028C8.41332 8.33798 8.70333 8.25 9 8.25C9.39783 8.25 9.77936 8.40804 10.0607 8.68934C10.342 8.97065 10.5 9.35218 10.5 9.75Z" fill="#81909D"/>
<path d="M13.5 19.5H3V4.5H21V12H22.5V4.5C22.5 4.10218 22.342 3.72064 22.0607 3.43934C21.7794 3.15804 21.3978 3 21 3H3C2.60218 3 2.22064 3.15804 1.93934 3.43934C1.65804 3.72064 1.5 4.10218 1.5 4.5V19.5C1.5 19.8978 1.65804 20.2794 1.93934 20.5607C2.22064 20.842 2.60218 21 3 21H13.5V19.5Z" fill="#81909D"/>
</svg>
