<svg width="64" height="64" viewBox="0 0 64 64" fill="none" xmlns="http://www.w3.org/2000/svg">
<circle opacity="0.2" cx="32" cy="32" r="32" fill="#B9CFF9"/>
<path d="M46 46H44V41C43.9985 39.6744 43.4712 38.4035 42.5339 37.4661C41.5965 36.5288 40.3256 36.0015 39 36V34C40.8559 34.0021 42.6352 34.7402 43.9475 36.0525C45.2598 37.3648 45.9979 39.1441 46 41V46Z" fill="#0E347E"/>
<path d="M38 46H36V41C35.9984 39.6744 35.4712 38.4035 34.5338 37.4662C33.5965 36.5288 32.3256 36.0016 31 36H25C23.6744 36.0016 22.4035 36.5288 21.4662 37.4662C20.5288 38.4035 20.0016 39.6744 20 41V46H18V41C18.0022 39.1442 18.7404 37.3649 20.0526 36.0526C21.3649 34.7404 23.1442 34.0022 25 34H31C32.8558 34.0022 34.6351 34.7404 35.9474 36.0526C37.2596 37.3649 37.9978 39.1442 38 41V46Z" fill="#0E347E"/>
<path d="M36 18V20C37.3261 20 38.5979 20.5268 39.5355 21.4645C40.4732 22.4021 41 23.6739 41 25C41 26.3261 40.4732 27.5979 39.5355 28.5355C38.5979 29.4732 37.3261 30 36 30V32C37.8565 32 39.637 31.2625 40.9497 29.9497C42.2625 28.637 43 26.8565 43 25C43 23.1435 42.2625 21.363 40.9497 20.0503C39.637 18.7375 37.8565 18 36 18Z" fill="#0E347E"/>
<path d="M28 20C28.9889 20 29.9556 20.2932 30.7779 20.8427C31.6001 21.3921 32.241 22.173 32.6194 23.0866C32.9978 24.0002 33.0969 25.0055 32.9039 25.9755C32.711 26.9454 32.2348 27.8363 31.5355 28.5355C30.8363 29.2348 29.9454 29.711 28.9755 29.9039C28.0055 30.0969 27.0002 29.9978 26.0866 29.6194C25.173 29.241 24.3921 28.6001 23.8427 27.7779C23.2932 26.9556 23 25.9889 23 25C23 23.6739 23.5268 22.4021 24.4645 21.4645C25.4022 20.5268 26.6739 20 28 20ZM28 18C26.6155 18 25.2622 18.4105 24.111 19.1797C22.9599 19.9489 22.0627 21.0421 21.5328 22.3212C21.003 23.6003 20.8644 25.0078 21.1345 26.3656C21.4046 27.7235 22.0713 28.9708 23.0503 29.9497C24.0292 30.9287 25.2765 31.5954 26.6344 31.8655C27.9922 32.1356 29.3997 31.997 30.6788 31.4672C31.9579 30.9373 33.0511 30.0401 33.8203 28.889C34.5895 27.7378 35 26.3845 35 25C35 23.1435 34.2625 21.363 32.9497 20.0503C31.637 18.7375 29.8565 18 28 18Z" fill="#0E347E"/>
</svg>
