<svg width="64" height="64" viewBox="0 0 64 64" fill="none" xmlns="http://www.w3.org/2000/svg">
<circle opacity="0.2" cx="32" cy="32" r="32" fill="#B9CFF9"/>
<g clip-path="url(#clip0)">
<path d="M32 16.0005L20 21.9784V36.0443C20 39.2269 21.2643 42.2791 23.5147 44.5296C25.7652 46.78 28.8174 48.0443 32 48.0443C35.1826 48.0443 38.2348 46.78 40.4853 44.5296C42.7357 42.2791 44 39.2269 44 36.0443V21.9784L32 16.0005ZM38.83 43.3143L32 39.9119V42.14L37.0361 44.6488C35.5189 45.5323 33.796 46.0009 32.0403 46.0076C30.2847 46.0143 28.5582 45.5587 27.0344 44.6867C25.5106 43.8147 24.2431 42.557 23.3594 41.0399C22.4757 39.5229 22.0069 37.7999 22 36.0443V23.21L32 18.2284L42 23.21V26.96L32 21.9783V24.2062L42 29.1878V32.9378L32 27.9562V30.1841L42 35.1656V36.0443C42.0005 36.9527 41.876 37.8569 41.63 38.7314L32 33.934V36.1619L40.8952 40.5932C40.3675 41.6117 39.669 42.5321 38.83 43.3143Z" fill="#1354D3"/>
</g>
<defs>
<clipPath id="clip0">
<rect width="32" height="32" fill="white" transform="translate(16 16)"/>
</clipPath>
</defs>
</svg>
