<svg width="64" height="64" viewBox="0 0 64 64" fill="none" xmlns="http://www.w3.org/2000/svg">
<circle opacity="0.2" cx="32" cy="32" r="32" fill="#B9CFF9"/>
<path d="M32.5 30H36V28H34V27H32V28.0508C31.3933 28.175 30.8543 28.52 30.4874 29.0189C30.1205 29.5178 29.9518 30.1351 30.0141 30.7513C30.0763 31.3674 30.365 31.9386 30.8243 32.354C31.2836 32.7695 31.8807 32.9996 32.5 33H33.5C33.6326 33 33.7598 33.0527 33.8536 33.1464C33.9473 33.2402 34 33.3674 34 33.5C34 33.6326 33.9473 33.7598 33.8536 33.8536C33.7598 33.9473 33.6326 34 33.5 34H30V36H32V37H34V35.9492C34.6067 35.825 35.1457 35.48 35.5126 34.9811C35.8795 34.4822 36.0482 33.8649 35.9859 33.2487C35.9237 32.6326 35.6349 32.0614 35.1757 31.646C34.7164 31.2305 34.1193 31.0004 33.5 31H32.5C32.3674 31 32.2402 30.9473 32.1464 30.8536C32.0527 30.7598 32 30.6326 32 30.5C32 30.3674 32.0527 30.2402 32.1464 30.1464C32.2402 30.0527 32.3674 30 32.5 30Z" fill="#FFC31A"/>
<path d="M45 29H42.98C42.9512 28.21 42.7606 27.4343 42.42 26.721C42.0795 26.0076 41.5962 25.3716 41 24.8525V21C41 20.8143 40.9483 20.6322 40.8507 20.4743C40.753 20.3163 40.6133 20.1886 40.4472 20.1056C40.2811 20.0225 40.0952 19.9874 39.9102 20.004C39.7252 20.0207 39.5486 20.0886 39.4 20.2L35.6665 23H31C25.4905 23 21.5366 26.2412 21.0515 31H21C20.7349 30.9998 20.4806 30.8943 20.2932 30.7068C20.1057 30.5194 20.0002 30.2651 20 30V28H18V30C18.0009 30.7954 18.3172 31.5579 18.8796 32.1204C19.4421 32.6828 20.2046 32.9991 21 33H21.07C21.2151 34.3112 21.6413 35.5757 22.3195 36.7072C22.9977 37.8387 23.912 38.8106 25 39.5566V43C25 43.2652 25.1054 43.5196 25.2929 43.7071C25.4804 43.8946 25.7348 44 26 44H30C30.2652 44 30.5196 43.8946 30.7071 43.7071C30.8946 43.5196 31 43.2652 31 43V41H34V43C34 43.2652 34.1054 43.5196 34.2929 43.7071C34.4804 43.8946 34.7348 44 35 44H39C39.2652 44 39.5196 43.8946 39.7071 43.7071C39.8946 43.5196 40 43.2652 40 43V39.6372C40.7224 39.2947 41.3539 38.787 41.8436 38.1551C42.3333 37.5233 42.6674 36.785 42.8188 36H45C45.2652 36 45.5196 35.8946 45.7071 35.7071C45.8946 35.5196 46 35.2652 46 35V30C46 29.7348 45.8946 29.4804 45.7071 29.2929C45.5196 29.1054 45.2652 29 45 29ZM44 34H41.124C40.8188 36.7529 40.3005 37.4854 38 38.3154V42H36V39H29V42H27V38.3779C25.7959 37.8051 24.7801 36.9008 24.0716 35.7712C23.3632 34.6416 22.9914 33.3334 23 32C23 27.1646 27.0181 25 31 25H36.3335L39 23V25.7764C41.4182 27.6357 40.9126 28.9624 41.0183 31H44V34Z" fill="#1354D3"/>
</svg>
