<svg width="64" height="64" viewBox="0 0 64 64" fill="none" xmlns="http://www.w3.org/2000/svg">
<circle opacity="0.2" cx="32" cy="32" r="32" fill="#B9CFF9"/>
<path d="M36 33V31C36 30.4696 35.7893 29.9609 35.4142 29.5858C35.0391 29.2107 34.5304 29 34 29H26C25.4696 29 24.9609 29.2107 24.5858 29.5858C24.2107 29.9609 24 30.4696 24 31V33C24 33.5304 24.2107 34.0391 24.5858 34.4142C24.9609 34.7893 25.4696 35 26 35H34C34.5304 35 35.0391 34.7893 35.4142 34.4142C35.7893 34.0391 36 33.5304 36 33ZM26 31H34V33H26V31Z" fill="#1354D3"/>
<path d="M39.4201 40.48C39.2838 39.9731 38.9536 39.5401 38.5009 39.2744C38.0481 39.0088 37.5091 38.9318 37.0001 39.06L29.2701 41.13C28.7588 41.2661 28.3222 41.5994 28.0561 42.0567C27.7899 42.514 27.7159 43.0582 27.8501 43.57L28.3701 45.5C28.4793 45.9233 28.7242 46.2992 29.0674 46.5701C29.4105 46.841 29.833 46.992 30.2701 47C30.4451 46.9919 30.6191 46.9685 30.7901 46.93L38.5201 44.86C39.0318 44.7218 39.4677 44.3862 39.7321 43.9268C39.9965 43.4674 40.0677 42.9219 39.9301 42.41L39.4201 40.48ZM30.2701 45L29.7601 43.06L37.4801 41L38.0001 42.92L30.2701 45Z" fill="#1354D3"/>
<path d="M29.2398 22.86L36.9998 24.93C37.1666 24.9729 37.3377 24.9964 37.5098 25C37.9512 25.002 38.3808 24.8578 38.7317 24.5901C39.0826 24.3225 39.3351 23.9462 39.4498 23.52L39.9998 21.58C40.1374 21.0682 40.0662 20.5226 39.8018 20.0632C39.5374 19.6039 39.1015 19.2682 38.5898 19.13L30.7898 17.06C30.278 16.9224 29.7324 16.9937 29.273 17.258C28.8137 17.5224 28.478 17.9583 28.3398 18.47L27.8198 20.4C27.6856 20.9118 27.7597 21.456 28.0258 21.9133C28.292 22.3707 28.7285 22.7039 29.2398 22.84V22.86ZM30.2398 19L37.9998 21.07L37.4798 23L29.7598 20.93L30.2398 19Z" fill="#1354D3"/>
<path d="M32 37H30V39H32V37Z" fill="#FFC31A"/>
<path d="M32 25H30V27H32V25Z" fill="#FFC31A"/>
</svg>
