<svg width="64" height="64" viewBox="0 0 64 64" fill="none" xmlns="http://www.w3.org/2000/svg">
<circle opacity="0.2" cx="32" cy="32" r="32" fill="#B9CFF9"/>
<path d="M41 39V42H23V32.83L26.59 36.41L28 35L22 29L16 35L17.41 36.41L21 32.83V42C21 42.5304 21.2107 43.0391 21.5858 43.4142C21.9609 43.7893 22.4696 44 23 44H41C41.5304 44 42.0391 43.7893 42.4142 43.4142C42.7893 43.0391 43 42.5304 43 42V39H41Z" fill="#0E347E"/>
<path d="M43 23V32.17L46.59 28.59L48 30L42 36L36 30L37.41 28.59L41 32.17V23H29V21H41C41.5304 21 42.0391 21.2107 42.4142 21.5858C42.7893 21.9609 43 22.4696 43 23Z" fill="#0E347E"/>
<path d="M24 26H20C19.4696 26 18.9609 25.7893 18.5858 25.4142C18.2107 25.0391 18 24.5304 18 24V20C18 19.4696 18.2107 18.9609 18.5858 18.5858C18.9609 18.2107 19.4696 18 20 18H24C24.5304 18 25.0391 18.2107 25.4142 18.5858C25.7893 18.9609 26 19.4696 26 20V24C26 24.5304 25.7893 25.0391 25.4142 25.4142C25.0391 25.7893 24.5304 26 24 26ZM20 20V24H24V20H20Z" fill="#FFC31A"/>
</svg>
