<svg width="24" height="24" viewBox="0 0 24 24" fill="none" xmlns="http://www.w3.org/2000/svg">
<path d="M18.75 17.25V19.5H5.25V12.6225L7.9425 15.3075L9 14.25L4.5 9.75L0 14.25L1.0575 15.3075L3.75 12.6225V19.5C3.75 19.8978 3.90804 20.2794 4.18934 20.5607C4.47064 20.842 4.85218 21 5.25 21H18.75C19.1478 21 19.5294 20.842 19.8107 20.5607C20.092 20.2794 20.25 19.8978 20.25 19.5V17.25H18.75Z" fill="#81909D"/>
<path d="M20.25 5.25V12.1275L22.9425 9.4425L24 10.5L19.5 15L15 10.5L16.0575 9.4425L18.75 12.1275V5.25H9.75V3.75H18.75C19.1478 3.75 19.5294 3.90804 19.8107 4.18934C20.092 4.47064 20.25 4.85218 20.25 5.25Z" fill="#81909D"/>
<path d="M6 7.5H3C2.60218 7.5 2.22064 7.34196 1.93934 7.06066C1.65804 6.77936 1.5 6.39782 1.5 6V3C1.5 2.60218 1.65804 2.22064 1.93934 1.93934C2.22064 1.65804 2.60218 1.5 3 1.5H6C6.39782 1.5 6.77936 1.65804 7.06066 1.93934C7.34196 2.22064 7.5 2.60218 7.5 3V6C7.5 6.39782 7.34196 6.77936 7.06066 7.06066C6.77936 7.34196 6.39782 7.5 6 7.5ZM3 3V6H6V3H3Z" fill="#81909D"/>
</svg>
