<svg width="64" height="64" viewBox="0 0 64 64" fill="none" xmlns="http://www.w3.org/2000/svg">
<circle opacity="0.2" cx="32" cy="32" r="32" fill="#B9CFF9"/>
<path d="M40 33H38V35H40V33Z" fill="#FFC31A"/>
<path d="M44 24H20V21H42V19H20C19.4696 19 18.9609 19.2107 18.5858 19.5858C18.2107 19.9609 18 20.4696 18 21V42C18 42.5304 18.2107 43.0391 18.5858 43.4142C18.9609 43.7893 19.4696 44 20 44H44C44.5304 44 45.0391 43.7893 45.4142 43.4142C45.7893 43.0391 46 42.5304 46 42V26C46 25.4696 45.7893 24.9609 45.4142 24.5858C45.0391 24.2107 44.5304 24 44 24ZM20 42V26H44V29H36C35.4696 29 34.9609 29.2107 34.5858 29.5858C34.2107 29.9609 34 30.4696 34 31V37C34 37.5304 34.2107 38.0391 34.5858 38.4142C34.9609 38.7893 35.4696 39 36 39H44V42H20ZM44 31V37H36V31H44Z" fill="#0E347E"/>
</svg>
