<svg width="64" height="64" viewBox="0 0 64 64" fill="none" xmlns="http://www.w3.org/2000/svg">
<circle opacity="0.2" cx="32" cy="32" r="32" fill="#B9CFF9"/>
<path d="M42 18H24C23.4696 18 22.9609 18.2107 22.5858 18.5858C22.2107 18.9609 22 19.4696 22 20V24H20V26H22V31H20V33H22V38H20V40H22V44C22 44.5304 22.2107 45.0391 22.5858 45.4142C22.9609 45.7893 23.4696 46 24 46H42C42.5304 46 43.0391 45.7893 43.4142 45.4142C43.7893 45.0391 44 44.5304 44 44V20C44 19.4696 43.7893 18.9609 43.4142 18.5858C43.0391 18.2107 42.5304 18 42 18ZM42 44H24V40H26V38H24V33H26V31H24V26H26V24H24V20H42V44Z" fill="#0E347E"/>
<path d="M38 24H30V26H38V24Z" fill="#FFC31A"/>
<path d="M38 31H30V33H38V31Z" fill="#FFC31A"/>
<path d="M38 38H30V40H38V38Z" fill="#FFC31A"/>
</svg>
