<svg width="64" height="64" viewBox="0 0 64 64" fill="none" xmlns="http://www.w3.org/2000/svg">
<circle opacity="0.2" cx="32" cy="32" r="32" fill="#B9CFF9"/>
<path d="M44 35H30.83L33.41 32.41L32 31L27 36L32 41L33.41 39.59L30.83 37H44V35Z" fill="#FFC31A"/>
<path d="M40 30V26C40.0008 25.8684 39.9755 25.7379 39.9258 25.6161C39.876 25.4943 39.8027 25.3834 39.71 25.29L32.71 18.29C32.6166 18.1973 32.5057 18.124 32.3839 18.0742C32.2621 18.0245 32.1316 17.9992 32 18H22C21.4696 18 20.9609 18.2107 20.5858 18.5858C20.2107 18.9609 20 19.4696 20 20V44C20 44.5304 20.2107 45.0391 20.5858 45.4142C20.9609 45.7893 21.4696 46 22 46H38C38.5304 46 39.0391 45.7893 39.4142 45.4142C39.7893 45.0391 40 44.5304 40 44V42H38V44H22V20H30V26C30 26.5304 30.2107 27.0391 30.5858 27.4142C30.9609 27.7893 31.4696 28 32 28H38V30H40ZM32 26V20.41L37.59 26H32Z" fill="#0E347E"/>
</svg>
