<svg width="1440" height="517" viewBox="0 0 1440 517" fill="none" xmlns="http://www.w3.org/2000/svg">
<path d="M-670 166.361C-670 166.361 -490 2 -310 2C-130 2 50 166.361 50 166.361V166.361C50 166.361 230 330.722 410 330.722C586.862 330.722 774.345 185.209 780.827 180.136C781.033 179.975 780.966 180.021 781.186 179.881C788.129 175.464 987.656 49.5 1164.5 49.5C1341.86 49.5 1485.72 162.956 1489.91 166.286C1490.04 166.391 1489.94 166.31 1490.07 166.423C1494.05 170.042 1672.03 330.722 1850 330.722C2030 330.722 2210 166.361 2210 166.361" stroke="#BEF0F4" stroke-width="3" stroke-dasharray="6 6"/>
<path d="M-670 174.361C-670 174.361 -490 10 -310 10C-130 10 50 174.361 50 174.361V174.361C50 174.361 230 338.722 410 338.722C586.862 338.722 774.345 193.209 780.827 188.136C781.033 187.975 780.966 188.021 781.186 187.881C788.129 183.464 987.656 57.5 1164.5 57.5C1341.86 57.5 1485.72 170.956 1489.91 174.286C1490.04 174.391 1489.94 174.31 1490.07 174.423C1494.05 178.042 1672.03 338.722 1850 338.722C2030 338.722 2210 174.361 2210 174.361" stroke="#BEF0F4" stroke-width="3" stroke-dasharray="6 6"/>
<path d="M-670 182.361C-670 182.361 -490 18 -310 18C-130 18 50 182.361 50 182.361V182.361C50 182.361 230 346.722 410 346.722C586.862 346.722 774.345 201.209 780.827 196.136C781.033 195.975 780.966 196.021 781.186 195.881C788.129 191.464 987.656 65.5 1164.5 65.5C1341.86 65.5 1485.72 178.956 1489.91 182.286C1490.04 182.391 1489.94 182.31 1490.07 182.423C1494.05 186.042 1672.03 346.722 1850 346.722C2030 346.722 2210 182.361 2210 182.361" stroke="#BEF0F4" stroke-width="3" stroke-dasharray="6 6"/>
<path d="M-670 190.361C-670 190.361 -490 26 -310 26C-130 26 50 190.361 50 190.361V190.361C50 190.361 230 354.722 410 354.722C586.862 354.722 774.345 209.209 780.827 204.136C781.033 203.975 780.966 204.021 781.186 203.881C788.129 199.464 987.656 73.5 1164.5 73.5C1341.86 73.5 1485.72 186.956 1489.91 190.286C1490.04 190.391 1489.94 190.31 1490.07 190.423C1494.05 194.042 1672.03 354.722 1850 354.722C2030 354.722 2210 190.361 2210 190.361" stroke="#BEF0F4" stroke-width="3" stroke-dasharray="6 6"/>
<path d="M-670 198.361C-670 198.361 -490 34 -310 34C-130 34 50 198.361 50 198.361V198.361C50 198.361 230 362.722 410 362.722C586.862 362.722 774.345 217.209 780.827 212.136C781.033 211.975 780.966 212.021 781.186 211.881C788.129 207.464 987.656 81.5 1164.5 81.5C1341.86 81.5 1485.72 194.956 1489.91 198.286C1490.04 198.391 1489.94 198.31 1490.07 198.423C1494.05 202.042 1672.03 362.722 1850 362.722C2030 362.722 2210 198.361 2210 198.361" stroke="#BEF0F4" stroke-width="3" stroke-dasharray="6 6"/>
<path d="M-670 206.361C-670 206.361 -490 42 -310 42C-130 42 50 206.361 50 206.361V206.361C50 206.361 230 370.722 410 370.722C586.862 370.722 774.345 225.209 780.827 220.136C781.033 219.975 780.966 220.021 781.186 219.881C788.129 215.464 987.656 89.5 1164.5 89.5C1341.86 89.5 1485.72 202.956 1489.91 206.286C1490.04 206.391 1489.94 206.31 1490.07 206.423C1494.05 210.042 1672.03 370.722 1850 370.722C2030 370.722 2210 206.361 2210 206.361" stroke="#BEF0F4" stroke-width="3" stroke-dasharray="6 6"/>
<path d="M-670 214.361C-670 214.361 -490 50 -310 50C-130 50 50 214.361 50 214.361V214.361C50 214.361 230 378.722 410 378.722C586.862 378.722 774.345 233.209 780.827 228.136C781.033 227.975 780.966 228.021 781.186 227.881C788.129 223.464 987.656 97.5 1164.5 97.5C1341.86 97.5 1485.72 210.956 1489.91 214.286C1490.04 214.391 1489.94 214.31 1490.07 214.423C1494.05 218.042 1672.03 378.722 1850 378.722C2030 378.722 2210 214.361 2210 214.361" stroke="#BEF0F4" stroke-width="3" stroke-dasharray="6 6"/>
<path d="M-670 222.361C-670 222.361 -490 58 -310 58C-130 58 50 222.361 50 222.361V222.361C50 222.361 230 386.722 410 386.722C586.862 386.722 774.345 241.209 780.827 236.136C781.033 235.975 780.966 236.021 781.186 235.881C788.129 231.464 987.656 105.5 1164.5 105.5C1341.86 105.5 1485.72 218.956 1489.91 222.286C1490.04 222.391 1489.94 222.31 1490.07 222.423C1494.05 226.042 1672.03 386.722 1850 386.722C2030 386.722 2210 222.361 2210 222.361" stroke="#BEF0F4" stroke-width="3" stroke-dasharray="6 6"/>
<path d="M-670 230.361C-670 230.361 -490 66 -310 66C-130 66 50 230.361 50 230.361V230.361C50 230.361 230 394.722 410 394.722C586.862 394.722 774.345 249.209 780.827 244.136C781.033 243.975 780.966 244.021 781.186 243.881C788.129 239.464 987.656 113.5 1164.5 113.5C1341.86 113.5 1485.72 226.956 1489.91 230.286C1490.04 230.391 1489.94 230.31 1490.07 230.423C1494.05 234.042 1672.03 394.722 1850 394.722C2030 394.722 2210 230.361 2210 230.361" stroke="#BEF0F4" stroke-width="3" stroke-dasharray="6 6"/>
<path d="M-670 238.361C-670 238.361 -490 74 -310 74C-130 74 50 238.361 50 238.361V238.361C50 238.361 230 402.722 410 402.722C586.862 402.722 774.345 257.209 780.827 252.136C781.033 251.975 780.966 252.021 781.186 251.881C788.129 247.464 987.656 121.5 1164.5 121.5C1341.86 121.5 1485.72 234.956 1489.91 238.286C1490.04 238.391 1489.94 238.31 1490.07 238.423C1494.05 242.042 1672.03 402.722 1850 402.722C2030 402.722 2210 238.361 2210 238.361" stroke="#BEF0F4" stroke-width="3" stroke-dasharray="6 6"/>
<path d="M-670 246.361C-670 246.361 -490 82 -310 82C-130 82 50 246.361 50 246.361V246.361C50 246.361 230 410.722 410 410.722C586.862 410.722 774.345 265.209 780.827 260.136C781.033 259.975 780.966 260.021 781.186 259.881C788.129 255.464 987.656 129.5 1164.5 129.5C1341.86 129.5 1485.72 242.956 1489.91 246.286C1490.04 246.391 1489.94 246.31 1490.07 246.423C1494.05 250.042 1672.03 410.722 1850 410.722C2030 410.722 2210 246.361 2210 246.361" stroke="#BEF0F4" stroke-width="3" stroke-dasharray="6 6"/>
<path d="M-670 254.361C-670 254.361 -490 90 -310 90C-130 90 50 254.361 50 254.361V254.361C50 254.361 230 418.722 410 418.722C586.862 418.722 774.345 273.209 780.827 268.136C781.033 267.975 780.966 268.021 781.186 267.881C788.129 263.464 987.656 137.5 1164.5 137.5C1341.86 137.5 1485.72 250.956 1489.91 254.286C1490.04 254.391 1489.94 254.31 1490.07 254.423C1494.05 258.042 1672.03 418.722 1850 418.722C2030 418.722 2210 254.361 2210 254.361" stroke="#BEF0F4" stroke-width="3" stroke-dasharray="6 6"/>
<path d="M-670 262.361C-670 262.361 -490 98 -310 98C-130 98 50 262.361 50 262.361V262.361C50 262.361 230 426.722 410 426.722C586.862 426.722 774.345 281.209 780.827 276.136C781.033 275.975 780.966 276.021 781.186 275.881C788.129 271.464 987.656 145.5 1164.5 145.5C1341.86 145.5 1485.72 258.956 1489.91 262.286C1490.04 262.391 1489.94 262.31 1490.07 262.423C1494.05 266.042 1672.03 426.722 1850 426.722C2030 426.722 2210 262.361 2210 262.361" stroke="#BEF0F4" stroke-width="3" stroke-dasharray="6 6"/>
<path d="M-670 270.361C-670 270.361 -490 106 -310 106C-130 106 50 270.361 50 270.361V270.361C50 270.361 230 434.722 410 434.722C586.862 434.722 774.345 289.209 780.827 284.136C781.033 283.975 780.966 284.021 781.186 283.881C788.129 279.464 987.656 153.5 1164.5 153.5C1341.86 153.5 1485.72 266.956 1489.91 270.286C1490.04 270.391 1489.94 270.31 1490.07 270.423C1494.05 274.042 1672.03 434.722 1850 434.722C2030 434.722 2210 270.361 2210 270.361" stroke="#BEF0F4" stroke-width="3" stroke-dasharray="6 6"/>
<path d="M-670 278.361C-670 278.361 -490 114 -310 114C-130 114 50 278.361 50 278.361V278.361C50 278.361 230 442.722 410 442.722C586.862 442.722 774.345 297.209 780.827 292.136C781.033 291.975 780.966 292.021 781.186 291.881C788.129 287.464 987.656 161.5 1164.5 161.5C1341.86 161.5 1485.72 274.956 1489.91 278.286C1490.04 278.391 1489.94 278.31 1490.07 278.423C1494.05 282.042 1672.03 442.722 1850 442.722C2030 442.722 2210 278.361 2210 278.361" stroke="#BEF0F4" stroke-width="3" stroke-dasharray="6 6"/>
<path d="M-670 286.361C-670 286.361 -490 122 -310 122C-130 122 50 286.361 50 286.361V286.361C50 286.361 230 450.722 410 450.722C586.862 450.722 774.345 305.209 780.827 300.136C781.033 299.975 780.966 300.021 781.186 299.881C788.129 295.464 987.656 169.5 1164.5 169.5C1341.86 169.5 1485.72 282.956 1489.91 286.286C1490.04 286.391 1489.94 286.31 1490.07 286.423C1494.05 290.042 1672.03 450.722 1850 450.722C2030 450.722 2210 286.361 2210 286.361" stroke="#BEF0F4" stroke-width="3" stroke-dasharray="6 6"/>
<path d="M-670 294.361C-670 294.361 -490 130 -310 130C-130 130 50 294.361 50 294.361V294.361C50 294.361 230 458.722 410 458.722C586.862 458.722 774.345 313.209 780.827 308.136C781.033 307.975 780.966 308.021 781.186 307.881C788.129 303.464 987.656 177.5 1164.5 177.5C1341.86 177.5 1485.72 290.956 1489.91 294.286C1490.04 294.391 1489.94 294.31 1490.07 294.423C1494.05 298.042 1672.03 458.722 1850 458.722C2030 458.722 2210 294.361 2210 294.361" stroke="#BEF0F4" stroke-width="3" stroke-dasharray="6 6"/>
<path d="M-670 302.361C-670 302.361 -490 138 -310 138C-130 138 50 302.361 50 302.361V302.361C50 302.361 230 466.722 410 466.722C586.862 466.722 774.345 321.209 780.827 316.136C781.033 315.975 780.966 316.021 781.186 315.881C788.129 311.464 987.656 185.5 1164.5 185.5C1341.86 185.5 1485.72 298.956 1489.91 302.286C1490.04 302.391 1489.94 302.31 1490.07 302.423C1494.05 306.042 1672.03 466.722 1850 466.722C2030 466.722 2210 302.361 2210 302.361" stroke="#BEF0F4" stroke-width="3" stroke-dasharray="6 6"/>
<path d="M-670 310.361C-670 310.361 -490 146 -310 146C-130 146 50 310.361 50 310.361V310.361C50 310.361 230 474.722 410 474.722C586.862 474.722 774.345 329.209 780.827 324.136C781.033 323.975 780.966 324.021 781.186 323.881C788.129 319.464 987.656 193.5 1164.5 193.5C1341.86 193.5 1485.72 306.956 1489.91 310.286C1490.04 310.391 1489.94 310.31 1490.07 310.423C1494.05 314.042 1672.03 474.722 1850 474.722C2030 474.722 2210 310.361 2210 310.361" stroke="#BEF0F4" stroke-width="3" stroke-dasharray="6 6"/>
<path d="M-670 318.361C-670 318.361 -490 154 -310 154C-130 154 50 318.361 50 318.361V318.361C50 318.361 230 482.722 410 482.722C586.862 482.722 774.345 337.209 780.827 332.136C781.033 331.975 780.966 332.021 781.186 331.881C788.129 327.464 987.656 201.5 1164.5 201.5C1341.86 201.5 1485.72 314.956 1489.91 318.286C1490.04 318.391 1489.94 318.31 1490.07 318.423C1494.05 322.042 1672.03 482.722 1850 482.722C2030 482.722 2210 318.361 2210 318.361" stroke="#BEF0F4" stroke-width="3" stroke-dasharray="6 6"/>
<path d="M-670 326.361C-670 326.361 -490 162 -310 162C-130 162 50 326.361 50 326.361V326.361C50 326.361 230 490.722 410 490.722C586.862 490.722 774.345 345.209 780.827 340.136C781.033 339.975 780.966 340.021 781.186 339.881C788.129 335.464 987.656 209.5 1164.5 209.5C1341.86 209.5 1485.72 322.956 1489.91 326.286C1490.04 326.391 1489.94 326.31 1490.07 326.423C1494.05 330.042 1672.03 490.722 1850 490.722C2030 490.722 2210 326.361 2210 326.361" stroke="#BEF0F4" stroke-width="3" stroke-dasharray="6 6"/>
<path d="M-670 334.361C-670 334.361 -490 170 -310 170C-130 170 50 334.361 50 334.361V334.361C50 334.361 230 498.722 410 498.722C586.862 498.722 774.345 353.209 780.827 348.136C781.033 347.975 780.966 348.021 781.186 347.881C788.129 343.464 987.656 217.5 1164.5 217.5C1341.86 217.5 1485.72 330.956 1489.91 334.286C1490.04 334.391 1489.94 334.31 1490.07 334.423C1494.05 338.042 1672.03 498.722 1850 498.722C2030 498.722 2210 334.361 2210 334.361" stroke="#BEF0F4" stroke-width="3" stroke-dasharray="6 6"/>
<path d="M-670 342.361C-670 342.361 -490 178 -310 178C-130 178 50 342.361 50 342.361V342.361C50 342.361 230 506.722 410 506.722C586.862 506.722 774.345 361.209 780.827 356.136C781.033 355.975 780.966 356.021 781.186 355.881C788.129 351.464 987.656 225.5 1164.5 225.5C1341.86 225.5 1485.72 338.956 1489.91 342.286C1490.04 342.391 1489.94 342.31 1490.07 342.423C1494.05 346.042 1672.03 506.722 1850 506.722C2030 506.722 2210 342.361 2210 342.361" stroke="#BEF0F4" stroke-width="3" stroke-dasharray="6 6"/>
<path d="M-670 350.361C-670 350.361 -490 186 -310 186C-130 186 50 350.361 50 350.361V350.361C50 350.361 230 514.722 410 514.722C586.862 514.722 774.345 369.209 780.827 364.136C781.033 363.975 780.966 364.021 781.186 363.881C788.129 359.464 987.656 233.5 1164.5 233.5C1341.86 233.5 1485.72 346.956 1489.91 350.286C1490.04 350.391 1489.94 350.31 1490.07 350.423C1494.05 354.042 1672.03 514.722 1850 514.722C2030 514.722 2210 350.361 2210 350.361" stroke="#BEF0F4" stroke-width="3" stroke-dasharray="6 6"/>
</svg>
