<svg width="64" height="64" viewBox="0 0 64 64" fill="none" xmlns="http://www.w3.org/2000/svg">
<circle opacity="0.2" cx="32" cy="32" r="32" fill="#B9CFF9"/>
<path d="M43 40C42.5544 40.0023 42.115 40.1051 41.7146 40.3008L37.4141 36H34V38H36.5859L40.3005 41.7148C40.1051 42.1152 40.0024 42.5545 40 43C40 43.5933 40.1759 44.1734 40.5056 44.6667C40.8352 45.1601 41.3038 45.5446 41.8519 45.7716C42.4001 45.9987 43.0033 46.0581 43.5853 45.9424C44.1672 45.8266 44.7018 45.5409 45.1213 45.1213C45.5409 44.7018 45.8266 44.1672 45.9424 43.5853C46.0581 43.0033 45.9987 42.4001 45.7716 41.8519C45.5446 41.3038 45.1601 40.8352 44.6667 40.5056C44.1734 40.1759 43.5933 40 43 40ZM43 44C42.8022 44 42.6089 43.9414 42.4444 43.8315C42.28 43.7216 42.1518 43.5654 42.0761 43.3827C42.0004 43.2 41.9806 42.9989 42.0192 42.8049C42.0578 42.6109 42.153 42.4327 42.2929 42.2929C42.4327 42.153 42.6109 42.0578 42.8049 42.0192C42.9989 41.9806 43.2 42.0004 43.3827 42.0761C43.5654 42.1518 43.7216 42.28 43.8315 42.4444C43.9414 42.6089 44 42.8022 44 43C43.9998 43.2651 43.8943 43.5194 43.7068 43.7068C43.5194 43.8943 43.2651 43.9998 43 44Z" fill="#FFC31A"/>
<path d="M43 29C42.3816 29.0019 41.779 29.1951 41.2748 29.5532C40.7706 29.9113 40.3897 30.4167 40.1843 31H34V33H40.1843C40.3686 33.5171 40.6914 33.9736 41.1176 34.3196C41.5437 34.6656 42.0568 34.8878 42.6007 34.9619C43.1446 35.0361 43.6984 34.9593 44.2016 34.74C44.7048 34.5208 45.1381 34.1674 45.4541 33.7185C45.77 33.2696 45.9565 32.7425 45.9932 32.1948C46.0299 31.6471 45.9154 31.0999 45.6621 30.6129C45.4088 30.1259 45.0265 29.7179 44.557 29.4334C44.0876 29.149 43.5489 28.999 43 29ZM43 33C42.8022 33 42.6089 32.9414 42.4444 32.8315C42.28 32.7216 42.1518 32.5654 42.0761 32.3827C42.0004 32.2 41.9806 31.9989 42.0192 31.8049C42.0578 31.6109 42.153 31.4328 42.2929 31.2929C42.4327 31.153 42.6109 31.0578 42.8049 31.0192C42.9989 30.9806 43.2 31.0004 43.3827 31.0761C43.5654 31.1518 43.7216 31.28 43.8315 31.4444C43.9414 31.6089 44 31.8022 44 32C43.9998 32.2651 43.8943 32.5194 43.7068 32.7068C43.5194 32.8943 43.2651 32.9998 43 33Z" fill="#FFC31A"/>
<path d="M43 18C42.2046 18.0009 41.4421 18.3172 40.8796 18.8796C40.3172 19.4421 40.0009 20.2046 40 21C40.0034 21.4791 40.1229 21.9502 40.3481 22.373L36.5957 26H34V28H37.4043L41.8032 23.7476C42.2118 23.9257 42.6551 24.0105 43.1006 23.9958C43.5461 23.981 43.9828 23.8671 44.3788 23.6624C44.7747 23.4576 45.1201 23.1672 45.3897 22.8121C45.6593 22.4571 45.8463 22.0464 45.9372 21.61C46.028 21.1736 46.0205 20.7224 45.915 20.2893C45.8095 19.8561 45.6088 19.452 45.3275 19.1062C45.0461 18.7604 44.6913 18.4817 44.2886 18.2903C43.886 18.099 43.4458 17.9998 43 18ZM43 22C42.8022 22 42.6089 21.9414 42.4444 21.8315C42.28 21.7216 42.1518 21.5654 42.0761 21.3827C42.0004 21.2 41.9806 20.9989 42.0192 20.8049C42.0578 20.6109 42.153 20.4327 42.2929 20.2929C42.4327 20.153 42.6109 20.0578 42.8049 20.0192C42.9989 19.9806 43.2 20.0004 43.3827 20.0761C43.5654 20.1518 43.7216 20.28 43.8315 20.4444C43.9414 20.6089 44 20.8022 44 21C43.9998 21.2651 43.8943 21.5194 43.7068 21.7068C43.5194 21.8943 43.2651 21.9998 43 22Z" fill="#FFC31A"/>
<path d="M34 22H36V20H34C33.4301 20.0019 32.8673 20.1263 32.3496 20.3648C31.832 20.6033 31.3718 20.9503 31 21.3823C30.6282 20.9503 30.168 20.6033 29.6504 20.3648C29.1327 20.1263 28.5699 20.0019 28 20H27C24.6139 20.0026 22.3262 20.9517 20.639 22.639C18.9517 24.3262 18.0026 26.6139 18 29V35C18.0026 37.3861 18.9517 39.6738 20.639 41.361C22.3262 43.0483 24.6139 43.9974 27 44H28C28.5699 43.9981 29.1327 43.8737 29.6504 43.6352C30.168 43.3967 30.6282 43.0497 31 42.6177C31.3718 43.0497 31.832 43.3967 32.3496 43.6352C32.8673 43.8737 33.4301 43.9981 34 44H36V42H34C33.4698 41.9994 32.9614 41.7885 32.5865 41.4135C32.2115 41.0386 32.0006 40.5302 32 40V24C32.0006 23.4698 32.2115 22.9614 32.5865 22.5865C32.9614 22.2115 33.4698 22.0006 34 22ZM28 42H27C25.3184 41.9971 23.694 41.3893 22.4235 40.2877C21.153 39.1861 20.3212 37.6642 20.08 36H22V34H20V30H23C23.7954 29.9991 24.5579 29.6828 25.1204 29.1204C25.6828 28.5579 25.9991 27.7954 26 27V25H24V27C23.9998 27.2651 23.8943 27.5194 23.7068 27.7068C23.5194 27.8943 23.2651 27.9998 23 28H20.08C20.3212 26.3358 21.153 24.8139 22.4235 23.7123C23.694 22.6107 25.3184 22.0029 27 22H28C28.5302 22.0006 29.0386 22.2115 29.4135 22.5865C29.7885 22.9614 29.9994 23.4698 30 24V28H28V30H30V34H28C27.2046 34.0009 26.4421 34.3172 25.8796 34.8796C25.3172 35.4421 25.0009 36.2046 25 37V39H27V37C27.0002 36.7349 27.1057 36.4806 27.2932 36.2932C27.4806 36.1057 27.7349 36.0002 28 36H30V40C29.9994 40.5302 29.7885 41.0386 29.4135 41.4135C29.0386 41.7885 28.5302 41.9994 28 42Z" fill="#0F42A4"/>
</svg>
