<svg width="64" height="64" viewBox="0 0 64 64" fill="none" xmlns="http://www.w3.org/2000/svg">
<circle opacity="0.2" cx="32" cy="32" r="32" fill="#B9CFF9"/>
<path d="M26 24H24V28H26V24Z" fill="#FFC31A"/>
<path d="M26 30H24V34H26V30Z" fill="#FFC31A"/>
<path d="M32 24H30V28H32V24Z" fill="#FFC31A"/>
<path d="M32 30H30V34H32V30Z" fill="#FFC31A"/>
<path d="M26 36H24V40H26V36Z" fill="#FFC31A"/>
<path d="M32 36H30V40H32V36Z" fill="#FFC31A"/>
<path d="M46 30C46 29.4696 45.7893 28.9609 45.4142 28.5858C45.0391 28.2107 44.5304 28 44 28H38V20C38 19.4696 37.7893 18.9609 37.4142 18.5858C37.0391 18.2107 36.5304 18 36 18H20C19.4696 18 18.9609 18.2107 18.5858 18.5858C18.2107 18.9609 18 19.4696 18 20V46H46V30ZM20 20H36V44H20V20ZM38 44V30H44V44H38Z" fill="#0E347E"/>
</svg>
