<svg width="64" height="64" viewBox="0 0 64 64" fill="none" xmlns="http://www.w3.org/2000/svg">
<circle opacity="0.2" cx="32" cy="32" r="32" fill="#B9CFF9"/>
<path d="M36 30H44C44.5302 29.9994 45.0386 29.7885 45.4135 29.4135C45.7885 29.0386 45.9994 28.5302 46 28V20C45.9994 19.4698 45.7885 18.9614 45.4135 18.5865C45.0386 18.2115 44.5302 18.0006 44 18H36C35.4698 18.0006 34.9614 18.2115 34.5865 18.5865C34.2115 18.9614 34.0006 19.4698 34 20H25C24.4698 20.0006 23.9614 20.2115 23.5865 20.5865C23.2115 20.9614 23.0006 21.4698 23 22V26H20C19.4698 26.0006 18.9614 26.2115 18.5865 26.5865C18.2115 26.9614 18.0006 27.4698 18 28V36C18.0006 36.5302 18.2115 37.0386 18.5865 37.4135C18.9614 37.7885 19.4698 37.9994 20 38H22V42C22.0006 42.5302 22.2115 43.0386 22.5865 43.4135C22.9614 43.7885 23.4698 43.9994 24 44H34C34.0006 44.5302 34.2115 45.0386 34.5865 45.4135C34.9614 45.7885 35.4698 45.9994 36 46H44C44.5302 45.9994 45.0386 45.7885 45.4135 45.4135C45.7885 45.0386 45.9994 44.5302 46 44V36C45.9994 35.4698 45.7885 34.9614 45.4135 34.5865C45.0386 34.2115 44.5302 34.0006 44 34H36C35.4698 34.0006 34.9614 34.2115 34.5865 34.5865C34.2115 34.9614 34.0006 35.4698 34 36V42H24V38H28C28.5302 37.9994 29.0386 37.7885 29.4135 37.4135C29.7885 37.0386 29.9994 36.5302 30 36V28C29.9994 27.4698 29.7885 26.9614 29.4135 26.5865C29.0386 26.2115 28.5302 26.0006 28 26H25V22H34V28C34.0006 28.5302 34.2115 29.0386 34.5865 29.4135C34.9614 29.7885 35.4698 29.9994 36 30ZM36 44V40H44V44H36ZM44 36V38H36V36H44ZM20 36V32H28V36H20ZM28.0005 30H20V28H28L28.0005 30ZM36 28V24H44V28H36ZM44 20V22H36V20H44Z" fill="#0E347E"/>
</svg>
