<svg width="64" height="64" viewBox="0 0 64 64" fill="none" xmlns="http://www.w3.org/2000/svg">
<circle opacity="0.2" cx="32" cy="32" r="32" fill="#B9CFF9"/>
<path d="M46 44H18V46H46V44Z" fill="#FFC31A"/>
<path d="M43 27C43.2652 27 43.5196 26.8946 43.7071 26.7071C43.8946 26.5196 44 26.2652 44 26V23C43.9999 22.7945 43.9365 22.594 43.8184 22.4258C43.7003 22.2576 43.5333 22.1299 43.34 22.06L32.34 18.06C32.1203 17.9806 31.8797 17.9806 31.66 18.06L20.66 22.06C20.4667 22.1299 20.2997 22.2576 20.1816 22.4258C20.0635 22.594 20.0001 22.7945 20 23V26C20 26.2652 20.1054 26.5196 20.2929 26.7071C20.4804 26.8946 20.7348 27 21 27H22V40H20V42H44V40H42V27H43ZM22 23.7L32 20.06L42 23.7V25H22V23.7ZM34 40H30V27H34V40ZM24 27H28V40H24V27ZM40 40H36V27H40V40Z" fill="#0E347E"/>
</svg>
