<svg width="64" height="64" viewBox="0 0 64 64" fill="none" xmlns="http://www.w3.org/2000/svg">
<circle opacity="0.2" cx="32" cy="32" r="32" fill="#B9CFF9"/>
<path d="M38.59 35.41L42.17 39H35.55L31.18 32L35.55 25H42.17L38.59 28.59L40 30L46 24L40 18L38.59 19.41L42.17 23H35.55C35.2118 23.001 34.8794 23.0878 34.5838 23.2522C34.2883 23.4166 34.0392 23.6532 33.86 23.94L30 30.11L26.14 23.94C25.9608 23.6532 25.7117 23.4166 25.4162 23.2522C25.1206 23.0878 24.7882 23.001 24.45 23H18V25H24.45L28.82 32L24.45 39H18V41H24.45C24.7882 40.999 25.1206 40.9122 25.4162 40.7478C25.7117 40.5834 25.9608 40.3468 26.14 40.06L30 33.89L33.86 40.06C34.0392 40.3468 34.2883 40.5834 34.5838 40.7478C34.8794 40.9122 35.2118 40.999 35.55 41H42.17L38.59 44.59L40 46L46 40L40 34L38.59 35.41Z" fill="#0E347E"/>
</svg>
