<svg width="64" height="64" viewBox="0 0 64 64" fill="none" xmlns="http://www.w3.org/2000/svg">
<circle opacity="0.2" cx="32" cy="32" r="32" fill="#B9CFF9"/>
<path d="M34 34H26V36H34V34Z" fill="#FFC31A"/>
<path d="M38 29H26V31H38V29Z" fill="#FFC31A"/>
<path d="M31 39H26V41H31V39Z" fill="#FFC31A"/>
<path d="M41 21H38V20C38 19.4696 37.7893 18.9609 37.4142 18.5858C37.0391 18.2107 36.5304 18 36 18H28C27.4696 18 26.9609 18.2107 26.5858 18.5858C26.2107 18.9609 26 19.4696 26 20V21H23C22.4696 21 21.9609 21.2107 21.5858 21.5858C21.2107 21.9609 21 22.4696 21 23V44C21 44.5304 21.2107 45.0391 21.5858 45.4142C21.9609 45.7893 22.4696 46 23 46H41C41.5304 46 42.0391 45.7893 42.4142 45.4142C42.7893 45.0391 43 44.5304 43 44V23C43 22.4696 42.7893 21.9609 42.4142 21.5858C42.0391 21.2107 41.5304 21 41 21ZM28 20H36V24H28V20ZM41 44H23V23H26V26H38V23H41V44Z" fill="#0E347E"/>
</svg>
