<svg width="64" height="64" viewBox="0 0 64 64" fill="none" xmlns="http://www.w3.org/2000/svg">
<circle opacity="0.2" cx="32" cy="32" r="32" fill="#B9CFF9"/>
<path d="M33 28H31V46H33V28Z" fill="#0F42A4"/>
<path d="M27.33 34.22C26.5951 33.5634 26.0071 32.759 25.6046 31.8595C25.202 30.9599 24.9939 29.9855 24.9939 29C24.9939 28.0145 25.202 27.0401 25.6046 26.1405C26.0071 25.241 26.5951 24.4366 27.33 23.78L28.67 25.27C28.1446 25.739 27.7242 26.3138 27.4364 26.9566C27.1486 27.5993 26.9998 28.2957 26.9998 29C26.9998 29.7043 27.1486 30.4007 27.4364 31.0434C27.7242 31.6862 28.1446 32.261 28.67 32.73L27.33 34.22Z" fill="#FFC31A"/>
<path d="M36.6701 34.22L35.3301 32.73C35.8555 32.261 36.2759 31.6862 36.5637 31.0434C36.8516 30.4007 37.0003 29.7043 37.0003 29C37.0003 28.2957 36.8516 27.5993 36.5637 26.9566C36.2759 26.3138 35.8555 25.739 35.3301 25.27L36.6701 23.78C37.405 24.4366 37.993 25.241 38.3955 26.1405C38.7981 27.0401 39.0062 28.0145 39.0062 29C39.0062 29.9855 38.7981 30.9599 38.3955 31.8595C37.993 32.759 37.405 33.5634 36.6701 34.22Z" fill="#FFC31A"/>
<path d="M24.4 37.8C23.0338 36.7754 21.925 35.4468 21.1613 33.9193C20.3976 32.3919 20 30.7077 20 29C20 27.2923 20.3976 25.6081 21.1613 24.0806C21.925 22.5532 23.0338 21.2246 24.4 20.2L25.6 21.8C24.4822 22.6383 23.575 23.7254 22.9502 24.9751C22.3253 26.2248 22 27.6028 22 29C22 30.3972 22.3253 31.7752 22.9502 33.0249C23.575 34.2746 24.4822 35.3617 25.6 36.2L24.4 37.8Z" fill="#FFC31A"/>
<path d="M39.5999 37.8L38.3999 36.2C39.5177 35.3617 40.4249 34.2746 41.0497 33.0249C41.6746 31.7752 41.9999 30.3972 41.9999 29C41.9999 27.6028 41.6746 26.2248 41.0497 24.9751C40.4249 23.7254 39.5177 22.6383 38.3999 21.8L39.5999 20.2C40.9661 21.2246 42.0749 22.5532 42.8386 24.0806C43.6023 25.6081 43.9999 27.2923 43.9999 29C43.9999 30.7077 43.6023 32.3919 42.8386 33.9193C42.0749 35.4468 40.9661 36.7754 39.5999 37.8Z" fill="#FFC31A"/>
</svg>
