<svg width="68" height="68" viewBox="0 0 68 68" fill="none" xmlns="http://www.w3.org/2000/svg">
<circle opacity="0.2" cx="34" cy="34" r="34" fill="#B9CFF9"/>
<path d="M25.783 24.826L34 23L42.217 24.826C42.4391 24.8754 42.6377 24.999 42.78 25.1764C42.9224 25.3538 43 25.5745 43 25.802V35.789C42.9999 36.7767 42.756 37.7492 42.2899 38.62C41.8238 39.4908 41.1499 40.2331 40.328 40.781L34 45L27.672 40.781C26.8503 40.2332 26.1765 39.4911 25.7103 38.6205C25.2442 37.7498 25.0002 36.7776 25 35.79V25.802C25 25.5745 25.0776 25.3538 25.22 25.1764C25.3623 24.999 25.5609 24.8754 25.783 24.826ZM35 32V27L30 34H33V39L38 32H35Z" fill="#0E347E"/>
</svg>
