<svg width="64" height="64" viewBox="0 0 64 64" fill="none" xmlns="http://www.w3.org/2000/svg">
<circle opacity="0.2" cx="32" cy="32" r="32" fill="#B9CFF9"/>
<path d="M42 46H30C29.4696 46 28.9609 45.7893 28.5858 45.4142C28.2107 45.0391 28 44.5304 28 44V41H30V44H42V20H30V23H28V20C28 19.4696 28.2107 18.9609 28.5858 18.5858C28.9609 18.2107 29.4696 18 30 18H42C42.5304 18 43.0391 18.2107 43.4142 18.5858C43.7893 18.9609 44 19.4696 44 20V44C44 44.5304 43.7893 45.0391 43.4142 45.4142C43.0391 45.7893 42.5304 46 42 46Z" fill="#0E347E"/>
<path d="M30.59 36.59L34.17 33H20V31H34.17L30.59 27.41L32 26L38 32L32 38L30.59 36.59Z" fill="#FFC31A"/>
</svg>
