<svg width="64" height="64" viewBox="0 0 64 64" fill="none" xmlns="http://www.w3.org/2000/svg">
<circle opacity="0.2" cx="32" cy="32" r="32" fill="#B9CFF9"/>
<path d="M42 30H40V32H42C42.7954 32.0009 43.5579 32.3172 44.1204 32.8796C44.6828 33.4421 44.9991 34.2046 45 35V39H47V35C46.9985 33.6744 46.4712 32.4035 45.5338 31.4662C44.5965 30.5288 43.3256 30.0015 42 30Z" fill="#0F42A4"/>
<path d="M40 20C40.5933 20 41.1734 20.1759 41.6667 20.5056C42.1601 20.8352 42.5446 21.3038 42.7716 21.8519C42.9987 22.4001 43.0581 23.0033 42.9424 23.5853C42.8266 24.1672 42.5409 24.7018 42.1213 25.1213C41.7018 25.5409 41.1672 25.8266 40.5853 25.9424C40.0033 26.0581 39.4001 25.9987 38.852 25.7716C38.3038 25.5446 37.8352 25.1601 37.5056 24.6667C37.1759 24.1734 37 23.5933 37 23C37 22.2044 37.3161 21.4413 37.8787 20.8787C38.4413 20.3161 39.2044 20 40 20ZM40 18C39.0111 18 38.0444 18.2932 37.2222 18.8427C36.3999 19.3921 35.759 20.173 35.3806 21.0866C35.0022 22.0002 34.9031 23.0055 35.0961 23.9755C35.289 24.9454 35.7652 25.8363 36.4645 26.5355C37.1637 27.2348 38.0546 27.711 39.0246 27.9039C39.9945 28.0969 40.9998 27.9978 41.9134 27.6194C42.8271 27.241 43.6079 26.6001 44.1574 25.7779C44.7068 24.9556 45 23.9889 45 23C45 21.6739 44.4732 20.4021 43.5355 19.4645C42.5979 18.5268 41.3261 18 40 18Z" fill="#FFC31A"/>
<path d="M39 46H37V44C36.9991 43.2046 36.6828 42.4421 36.1204 41.8796C35.5579 41.3172 34.7954 41.0009 34 41H30C29.2046 41.0009 28.4421 41.3172 27.8796 41.8796C27.3172 42.4421 27.0009 43.2046 27 44V46H25V44C25.0016 42.6744 25.5288 41.4035 26.4662 40.4662C27.4035 39.5288 28.6744 39.0016 30 39H34C35.3256 39.0016 36.5965 39.5288 37.5338 40.4662C38.4712 41.4035 38.9984 42.6744 39 44V46Z" fill="#0F42A4"/>
<path d="M32 29C32.5933 29 33.1734 29.1759 33.6667 29.5056C34.1601 29.8352 34.5446 30.3038 34.7716 30.8519C34.9987 31.4001 35.0581 32.0033 34.9424 32.5853C34.8266 33.1672 34.5409 33.7018 34.1213 34.1213C33.7018 34.5409 33.1672 34.8266 32.5853 34.9424C32.0033 35.0581 31.4001 34.9987 30.852 34.7716C30.3038 34.5446 29.8352 34.1601 29.5056 33.6667C29.1759 33.1734 29 32.5933 29 32C29 31.2044 29.3161 30.4413 29.8787 29.8787C30.4413 29.3161 31.2044 29 32 29ZM32 27C31.0111 27 30.0444 27.2932 29.2222 27.8427C28.3999 28.3921 27.759 29.173 27.3806 30.0866C27.0022 31.0002 26.9031 32.0055 27.0961 32.9755C27.289 33.9454 27.7652 34.8363 28.4645 35.5355C29.1637 36.2348 30.0546 36.711 31.0246 36.9039C31.9945 37.0969 32.9998 36.9978 33.9134 36.6194C34.8271 36.241 35.6079 35.6001 36.1574 34.7779C36.7068 33.9556 37 32.9889 37 32C37 30.6739 36.4732 29.4021 35.5355 28.4645C34.5979 27.5268 33.3261 27 32 27Z" fill="#FFC31A"/>
<path d="M24 30H22C20.6744 30.0016 19.4035 30.5288 18.4662 31.4662C17.5288 32.4035 17.0016 33.6744 17 35V39H19V35C19.0009 34.2046 19.3172 33.4421 19.8796 32.8796C20.4421 32.3172 21.2046 32.0009 22 32H24V30Z" fill="#0F42A4"/>
<path d="M24 20C24.5933 20 25.1734 20.1759 25.6667 20.5056C26.1601 20.8352 26.5446 21.3038 26.7716 21.8519C26.9987 22.4001 27.0581 23.0033 26.9424 23.5853C26.8266 24.1672 26.5409 24.7018 26.1213 25.1213C25.7018 25.5409 25.1672 25.8266 24.5853 25.9424C24.0033 26.0581 23.4001 25.9987 22.852 25.7716C22.3038 25.5446 21.8352 25.1601 21.5056 24.6667C21.1759 24.1734 21 23.5933 21 23C21 22.2044 21.3161 21.4413 21.8787 20.8787C22.4413 20.3161 23.2044 20 24 20ZM24 18C23.0111 18 22.0444 18.2932 21.2222 18.8427C20.3999 19.3921 19.759 20.173 19.3806 21.0866C19.0022 22.0002 18.9031 23.0055 19.0961 23.9755C19.289 24.9454 19.7652 25.8363 20.4645 26.5355C21.1637 27.2348 22.0546 27.711 23.0246 27.9039C23.9945 28.0969 24.9998 27.9978 25.9134 27.6194C26.827 27.241 27.6079 26.6001 28.1573 25.7779C28.7068 24.9556 29 23.9889 29 23C29 21.6739 28.4732 20.4021 27.5355 19.4645C26.5979 18.5268 25.3261 18 24 18Z" fill="#FFC31A"/>
</svg>
