<svg width="64" height="64" viewBox="0 0 64 64" fill="none" xmlns="http://www.w3.org/2000/svg">
<circle opacity="0.2" cx="32" cy="32" r="32" fill="#B9CFF9"/>
<path d="M37 46C35.4178 46 33.871 45.5308 32.5554 44.6518C31.2398 43.7727 30.2145 42.5233 29.609 41.0615C29.0035 39.5997 28.845 37.9911 29.1537 36.4393C29.4624 34.8874 30.2243 33.462 31.3431 32.3431C32.462 31.2243 33.8874 30.4624 35.4393 30.1537C36.9911 29.845 38.5997 30.0035 40.0615 30.609C41.5233 31.2145 42.7727 32.2398 43.6518 33.5554C44.5308 34.871 45 36.4178 45 38C45 40.1217 44.1571 42.1566 42.6569 43.6569C41.1566 45.1571 39.1217 46 37 46ZM37 32C35.8133 32 34.6533 32.3519 33.6666 33.0112C32.6799 33.6705 31.9109 34.6075 31.4567 35.7039C31.0026 36.8003 30.8838 38.0067 31.1153 39.1705C31.3468 40.3344 31.9182 41.4035 32.7574 42.2426C33.5965 43.0818 34.6656 43.6532 35.8295 43.8847C36.9933 44.1162 38.1997 43.9974 39.2961 43.5433C40.3925 43.0892 41.3295 42.3201 41.9888 41.3334C42.6481 40.3467 43 39.1867 43 38C43 36.4087 42.3679 34.8826 41.2426 33.7574C40.1174 32.6321 38.5913 32 37 32Z" fill="#FFC31A"/>
<path d="M38.59 41L36 38.41V34H38V37.59L40 39.59L38.59 41Z" fill="#FFC31A"/>
<path d="M44 22C44 21.4696 43.7893 20.9609 43.4142 20.5858C43.0391 20.2107 42.5304 20 42 20H38V18H36V20H28V18H26V20H22C21.4696 20 20.9609 20.2107 20.5858 20.5858C20.2107 20.9609 20 21.4696 20 22V42C20 42.5304 20.2107 43.0391 20.5858 43.4142C20.9609 43.7893 21.4696 44 22 44H26V42H22V22H26V24H28V22H36V24H38V22H42V28H44V22Z" fill="#0E347E"/>
</svg>
