<svg width="64" height="64" viewBox="0 0 64 64" fill="none" xmlns="http://www.w3.org/2000/svg">
<circle opacity="0.2" cx="32" cy="32" r="32" fill="#B9CFF9"/>
<path d="M47 19H33C32.7348 19 32.4804 19.1054 32.2929 19.2929C32.1054 19.4804 32 19.7348 32 20V33C32 33.2652 32.1054 33.5196 32.2929 33.7071C32.4804 33.8946 32.7348 34 33 34H47C47.2652 34 47.5196 33.8946 47.7071 33.7071C47.8946 33.5196 48 33.2652 48 33V20C48 19.7348 47.8946 19.4804 47.7071 19.2929C47.5196 19.1054 47.2652 19 47 19ZM44 25H41V28H44V30H41V32H39V30H36V28H39V25H36V23H39V21H41V23H44V25Z" fill="#FFC31A"/>
<path d="M31.0002 46H29.0002V42C29.0075 41.604 28.9349 41.2107 28.7867 40.8434C28.6385 40.4762 28.4178 40.1425 28.1377 39.8625C27.8577 39.5825 27.5241 39.3618 27.1568 39.2136C26.7896 39.0654 26.3962 38.9927 26.0002 39H22.0002C21.6043 38.9927 21.2109 39.0654 20.8437 39.2136C20.4764 39.3618 20.1428 39.5825 19.8628 39.8625C19.5827 40.1425 19.362 40.4762 19.2138 40.8434C19.0656 41.2107 18.993 41.604 19.0002 42V46H17.0002V42C16.9937 41.3416 17.1186 40.6885 17.3676 40.0789C17.6166 39.4694 17.9846 38.9156 18.4502 38.45C18.9158 37.9844 19.4696 37.6163 20.0792 37.3674C20.6887 37.1184 21.3418 36.9935 22.0002 37H26.0002C26.6587 36.9935 27.3118 37.1184 27.9213 37.3674C28.5309 37.6163 29.0847 37.9844 29.5503 38.45C30.0158 38.9156 30.3839 39.4694 30.6329 40.0789C30.8818 40.6885 31.0067 41.3416 31.0002 42V46Z" fill="#0E347E"/>
<path d="M24 27C24.7956 27 25.5587 27.3161 26.1213 27.8787C26.6839 28.4413 27 29.2044 27 30C27 30.7956 26.6839 31.5587 26.1213 32.1213C25.5587 32.6839 24.7956 33 24 33C23.2044 33 22.4413 32.6839 21.8787 32.1213C21.3161 31.5587 21 30.7956 21 30C21 29.2044 21.3161 28.4413 21.8787 27.8787C22.4413 27.3161 23.2044 27 24 27ZM24 25C22.6739 25 21.4021 25.5268 20.4645 26.4645C19.5268 27.4021 19 28.6739 19 30C19 31.3261 19.5268 32.5979 20.4645 33.5355C21.4021 34.4732 22.6739 35 24 35C25.3261 35 26.5979 34.4732 27.5355 33.5355C28.4732 32.5979 29 31.3261 29 30C29 28.6739 28.4732 27.4021 27.5355 26.4645C26.5979 25.5268 25.3261 25 24 25Z" fill="#0E347E"/>
</svg>
