<svg width="64" height="64" viewBox="0 0 64 64" fill="none" xmlns="http://www.w3.org/2000/svg">
<circle opacity="0.2" cx="32" cy="32" r="32" fill="#B9CFF9"/>
<path d="M41 39H40.9785C40.7649 38.9951 40.5585 38.922 40.3894 38.7915C40.2203 38.661 40.0973 38.4798 40.0385 38.2744L36.8711 27.19L34.9365 32.3507C34.865 32.5413 34.7371 32.7057 34.5697 32.8217C34.4024 32.9377 34.2036 32.9999 34 33H30V31H33.3066L36.0635 23.6489C36.1375 23.4519 36.2717 23.2832 36.4471 23.1669C36.6224 23.0506 36.83 22.9925 37.0402 23.001C37.2505 23.0094 37.4527 23.0839 37.6182 23.2139C37.7837 23.3439 37.9039 23.5228 37.9619 23.7251L41.0732 34.6172L43.0518 28.6836C43.118 28.4845 43.2453 28.3113 43.4155 28.1886C43.5857 28.0659 43.7902 27.9999 44 28H48V30H44.7207L41.9482 38.3164C41.882 38.5155 41.7548 38.6887 41.5846 38.8115C41.4144 38.9342 41.2098 39.0001 41 39Z" fill="#FFC31A"/>
<path d="M31 46H29V39C28.9991 38.2046 28.6828 37.4421 28.1204 36.8796C27.5579 36.3172 26.7954 36.0009 26 36H22C21.2046 36.0009 20.4421 36.3172 19.8796 36.8796C19.3172 37.4421 19.0009 38.2046 19 39V46H17V39C17.0016 37.6744 17.5288 36.4035 18.4662 35.4662C19.4035 34.5288 20.6744 34.0016 22 34H26C27.3256 34.0016 28.5965 34.5288 29.5338 35.4662C30.4712 36.4035 30.9984 37.6744 31 39V46Z" fill="#0F42A4"/>
<path d="M24 24C24.5933 24 25.1734 24.1759 25.6667 24.5056C26.1601 24.8352 26.5446 25.3038 26.7716 25.8519C26.9987 26.4001 27.0581 27.0033 26.9424 27.5853C26.8266 28.1672 26.5409 28.7018 26.1213 29.1213C25.7018 29.5409 25.1672 29.8266 24.5853 29.9424C24.0033 30.0581 23.4001 29.9987 22.852 29.7716C22.3038 29.5446 21.8352 29.1601 21.5056 28.6667C21.1759 28.1734 21 27.5933 21 27C21 26.2044 21.3161 25.4413 21.8787 24.8787C22.4413 24.3161 23.2044 24 24 24ZM24 22C23.0111 22 22.0444 22.2932 21.2222 22.8427C20.3999 23.3921 19.759 24.173 19.3806 25.0866C19.0022 26.0002 18.9031 27.0055 19.0961 27.9755C19.289 28.9454 19.7652 29.8363 20.4645 30.5355C21.1637 31.2348 22.0546 31.711 23.0246 31.9039C23.9945 32.0969 24.9998 31.9978 25.9134 31.6194C26.827 31.241 27.6079 30.6001 28.1573 29.7779C28.7068 28.9556 29 27.9889 29 27C29 25.6739 28.4732 24.4021 27.5355 23.4645C26.5979 22.5268 25.3261 22 24 22Z" fill="#0F42A4"/>
</svg>
