<svg width="64" height="64" viewBox="0 0 64 64" fill="none" xmlns="http://www.w3.org/2000/svg">
<circle opacity="0.2" cx="32" cy="32" r="32" fill="#B9CFF9"/>
<g clip-path="url(#clip0)">
<path d="M36 29H28C27.4698 29.0007 26.9614 29.2116 26.5865 29.5865C26.2116 29.9614 26.0007 30.4698 26 31V44C26.0007 44.5302 26.2116 45.0386 26.5865 45.4135C26.9614 45.7884 27.4698 45.9993 28 46H36C36.5302 45.9993 37.0386 45.7884 37.4135 45.4135C37.7884 45.0386 37.9993 44.5302 38 44V31C37.9993 30.4698 37.7884 29.9614 37.4135 29.5865C37.0386 29.2116 36.5302 29.0007 36 29ZM36 31V34H28V31H36ZM36 36V39H28V36H36ZM28 44V41H36V44H28Z" fill="#FFC31A"/>
<path d="M41.9099 26.13C41.8861 26.1256 41.8642 26.1142 41.847 26.0972C41.8297 26.0803 41.818 26.0585 41.8132 26.0348C41.4214 24.0871 40.4586 22.3001 39.0476 20.9016C37.6365 19.503 35.841 18.5561 33.8899 18.1816C31.2975 17.6808 28.6122 18.2253 26.4197 19.6965C24.2271 21.1676 22.7052 23.446 22.1857 26.0347C22.1811 26.0585 22.1694 26.0803 22.1522 26.0973C22.135 26.1144 22.1131 26.1259 22.0893 26.1304C20.2568 26.4817 18.621 27.5034 17.5012 28.9959C16.3814 30.4884 15.858 32.3446 16.0331 34.2022C16.2083 36.0599 17.0694 37.7856 18.4484 39.0425C19.8274 40.2994 21.6253 40.9973 23.4911 41H23.9999V39H23.4953C22.7062 38.9978 21.9268 38.8262 21.2098 38.4967C20.4928 38.1673 19.8549 37.6877 19.3392 37.0904C18.8236 36.493 18.4422 35.792 18.2209 35.0345C17.9997 34.2771 17.9436 33.481 18.0566 32.7C18.2582 31.5286 18.821 30.4496 19.6663 29.6139C20.5115 28.7782 21.5968 28.2277 22.7704 28.0394L23.787 27.8558C23.8128 27.851 23.8366 27.8386 23.8552 27.8202C23.8739 27.8017 23.8865 27.7781 23.8915 27.7523L24.0715 26.8172C24.3697 25.1208 25.1895 23.5595 26.4168 22.351C27.644 21.1424 29.2176 20.3466 30.9184 20.0745C31.8672 19.9443 32.8317 19.9865 33.7655 20.199C35.3146 20.5763 36.7204 21.3959 37.8119 22.5579C38.9034 23.72 39.6334 25.1744 39.913 26.744L40.1071 27.7523C40.1121 27.7781 40.1247 27.8018 40.1433 27.8203C40.162 27.8387 40.1858 27.8511 40.2116 27.8558L41.2692 28.0472C42.4359 28.2314 43.5181 28.7685 44.3703 29.5862C45.1439 30.3535 45.6724 31.333 45.8889 32.4009C46.1054 33.4687 46.0002 34.5767 45.5866 35.5847C45.173 36.5927 44.4696 37.4553 43.5654 38.0632C42.6613 38.6712 41.5971 38.9972 40.5075 39H39.9999V41H40.5075C42.3738 40.998 44.1723 40.3004 45.5519 39.0435C46.9314 37.7865 47.7929 36.0605 47.9682 34.2025C48.1434 32.3445 47.6198 30.4878 46.4996 28.9951C45.3793 27.5024 43.7429 26.4809 41.9099 26.13Z" fill="#0E347E"/>
</g>
<defs>
<clipPath id="clip0">
<rect width="32" height="32" fill="white" transform="translate(16 16)"/>
</clipPath>
</defs>
</svg>
