<svg width="64" height="64" viewBox="0 0 64 64" fill="none" xmlns="http://www.w3.org/2000/svg">
<circle opacity="0.2" cx="32" cy="32" r="32" fill="#B9CFF9"/>
<path d="M19 27V29H24.59L18.29 35.29L19.71 36.71L26 30.41V36H28V27H19Z" fill="#FFC31A"/>
<path d="M42 29H39V28H37V29H34C33.4696 29 32.9609 29.2107 32.5858 29.5858C32.2107 29.9609 32 30.4696 32 31V33C32 33.5304 32.2107 34.0391 32.5858 34.4142C32.9609 34.7893 33.4696 35 34 35H37V36H39V35H42C42.5304 35 43.0391 34.7893 43.4142 34.4142C43.7893 34.0391 44 33.5304 44 33V31C44 30.4696 43.7893 29.9609 43.4142 29.5858C43.0391 29.2107 42.5304 29 42 29ZM34 33V31H42V33H34Z" fill="#0E347E"/>
<path d="M42 39H39V38H37V39H34C33.4696 39 32.9609 39.2107 32.5858 39.5858C32.2107 39.9609 32 40.4696 32 41V43C32 43.5304 32.2107 44.0391 32.5858 44.4142C32.9609 44.7893 33.4696 45 34 45H37V46H39V45H42C42.5304 45 43.0391 44.7893 43.4142 44.4142C43.7893 44.0391 44 43.5304 44 43V41C44 40.4696 43.7893 39.9609 43.4142 39.5858C43.0391 39.2107 42.5304 39 42 39ZM34 43V41H42V43H34Z" fill="#0E347E"/>
<path d="M42 19H39V18H37V19H34C33.4696 19 32.9609 19.2107 32.5858 19.5858C32.2107 19.9609 32 20.4696 32 21V23C32 23.5304 32.2107 24.0391 32.5858 24.4142C32.9609 24.7893 33.4696 25 34 25H37V26H39V25H42C42.5304 25 43.0391 24.7893 43.4142 24.4142C43.7893 24.0391 44 23.5304 44 23V21C44 20.4696 43.7893 19.9609 43.4142 19.5858C43.0391 19.2107 42.5304 19 42 19ZM34 23V21H42V23H34Z" fill="#0E347E"/>
</svg>
